<svg width="48px" height="24px" xmlns="http://www.w3.org/2000/svg" xmlns:xlink="http://www.w3.org/1999/xlink">
<g style="">  <path d="M11.848000,11.616000 C10.888000,10.656000,10.600000,10.496000,9.768000,10.496000 C9.640000,10.496000,9.640000,10.496000,8.584000,10.560000 C8.008000,10.592000,7.848000,10.656000,7.592000,10.880000 C7.016000,11.424000,6.728000,12.704000,6.728000,14.912000 C6.728000,17.376000,7.112000,19.424000,7.752000,20.576000 C7.976000,20.960000,8.360000,21.088000,9.256000,21.088000 C9.896000,21.088000,10.824000,20.992000,11.080000,20.896000 C11.336000,20.800000,11.592000,20.608000,11.944000,20.256000 C12.680000,20.544000,12.936000,20.672000,13.864000,21.248000 C16.520000,22.848000,17.480000,23.232000,18.792000,23.232000 C19.240000,23.232000,19.528000,23.232000,20.296000,23.168000 C21.064000,23.424000,21.544000,23.520000,21.864000,23.520000 C22.792000,23.520000,23.656000,22.816000,23.656000,22.048000 C23.656000,21.920000,23.656000,21.824000,23.624000,21.632000 C23.944000,21.760000,24.136000,21.792000,24.296000,21.792000 C25.352000,21.792000,26.280000,20.832000,26.280000,19.680000 C26.280000,19.424000,26.248000,19.232000,26.088000,18.816000 C27.208000,18.752000,27.976000,17.952000,27.976000,16.864000 C27.976000,16.288000,27.880000,16.000000,27.496000,15.392000 C28.360000,15.392000,29.352000,15.392000,31.080000,15.392000 C33.800000,15.392000,34.856000,15.264000,35.592000,14.784000 C36.072000,14.464000,36.296000,14.080000,36.296000,13.568000 C36.296000,12.960000,35.912000,12.384000,35.368000,12.128000 C34.728000,11.872000,33.768000,11.712000,31.976000,11.584000 C27.560000,11.328000,27.560000,11.328000,25.416000,10.976000 C24.424000,9.792000,23.720000,9.280000,22.760000,9.056000 C22.056000,8.896000,21.544000,8.800000,21.224000,8.704000 C19.976000,8.416000,19.848000,8.384000,19.144000,8.384000 C18.280000,8.384000,17.352000,8.576000,16.584000,8.864000 C15.592000,9.280000,13.832000,10.336000,13.064000,10.976000 C12.488000,11.488000,12.328000,11.584000,11.848000,11.616000 ZM27.112000,14.496000 C27.080000,13.760000,26.888000,13.216000,26.344000,12.416000 C26.280000,12.320000,26.184000,12.160000,26.088000,11.968000 C26.472000,12.032000,27.784000,12.128000,30.024000,12.320000 C32.872000,12.544000,34.280000,12.672000,34.312000,12.672000 C35.016000,12.832000,35.400000,13.152000,35.400000,13.600000 C35.400000,13.856000,35.048000,14.176000,34.696000,14.272000 C34.152000,14.432000,32.584000,14.496000,28.456000,14.496000 ZM11.528000,12.512000 C11.656000,12.544000,11.752000,12.576000,11.816000,12.576000 C12.296000,12.576000,12.744000,12.352000,13.480000,11.776000 C14.376000,11.104000,15.944000,10.144000,16.808000,9.760000 C17.608000,9.408000,18.344000,9.248000,19.112000,9.248000 C19.592000,9.248000,20.584000,9.440000,21.704000,9.728000 C23.432000,10.208000,23.880000,10.496000,24.808000,11.776000 C25.544000,12.768000,26.216000,14.016000,26.216000,14.368000 C26.216000,14.752000,25.832000,15.008000,25.256000,15.008000 C24.392000,15.008000,23.656000,14.560000,23.048000,13.664000 C22.792000,13.312000,22.792000,13.312000,22.216000,13.120000 C21.480000,12.832000,21.480000,12.832000,21.128000,12.736000 C20.520000,13.504000,19.816000,14.112000,18.760000,14.784000 C17.928000,15.328000,17.064000,15.552000,15.752000,15.552000 C15.688000,15.552000,15.624000,15.552000,15.592000,15.552000 C14.632000,15.456000,14.632000,15.456000,14.600000,15.456000 C14.344000,15.456000,14.184000,15.584000,14.184000,15.808000 C14.184000,16.160000,14.728000,16.416000,15.496000,16.416000 C16.072000,16.416000,17.416000,16.224000,17.896000,16.096000 C18.312000,15.968000,18.472000,15.872000,19.880000,15.136000 C19.944000,15.424000,19.976000,15.520000,20.104000,15.744000 C19.080000,15.872000,18.472000,16.448000,18.472000,17.312000 C18.472000,17.440000,18.504000,17.600000,18.568000,17.856000 C17.608000,17.856000,16.968000,18.560000,16.968000,19.584000 C16.968000,20.448000,17.608000,21.344000,18.984000,22.432000 C17.832000,22.336000,16.840000,21.984000,15.528000,21.184000 C14.408000,20.544000,13.736000,20.160000,13.512000,20.032000 C12.488000,19.552000,12.488000,19.552000,11.944000,19.232000 C11.528000,18.624000,11.400000,18.304000,11.272000,17.504000 C11.176000,17.024000,11.112000,16.288000,11.112000,15.968000 C11.112000,15.968000,11.112000,15.904000,11.112000,15.872000 C11.144000,15.392000,11.144000,14.944000,11.144000,14.528000 C11.176000,13.472000,11.240000,13.184000,11.528000,12.512000 ZM26.472000,15.584000 C26.536000,15.552000,26.920000,16.096000,26.984000,16.352000 C27.048000,16.480000,27.112000,16.736000,27.112000,16.864000 C27.112000,17.472000,26.536000,18.016000,25.928000,18.016000 C25.640000,18.016000,24.488000,17.664000,23.880000,17.376000 C23.752000,17.344000,22.312000,16.544000,22.024000,16.384000 C21.128000,15.872000,20.712000,15.360000,20.712000,14.784000 C20.712000,14.368000,21.256000,13.824000,21.736000,13.824000 C21.992000,13.824000,22.120000,13.920000,22.408000,14.336000 C22.760000,14.848000,23.368000,15.392000,23.784000,15.552000 C24.296000,15.744000,24.872000,15.872000,25.352000,15.872000 C25.736000,15.872000,25.960000,15.808000,26.472000,15.584000 ZM19.304000,17.504000 C19.304000,17.024000,19.752000,16.576000,20.264000,16.576000 C20.616000,16.576000,20.712000,16.608000,21.608000,17.152000 C22.024000,17.408000,23.688000,18.240000,24.552000,18.624000 C24.968000,18.816000,25.352000,19.392000,25.352000,19.776000 C25.352000,20.320000,24.840000,20.832000,24.296000,20.832000 C23.784000,20.832000,23.016000,20.512000,21.704000,19.744000 C19.976000,18.720000,19.304000,18.112000,19.304000,17.504000 ZM17.864000,19.488000 C17.864000,19.104000,18.248000,18.784000,18.664000,18.784000 C18.856000,18.784000,18.984000,18.848000,19.240000,19.104000 C19.528000,19.424000,20.040000,19.776000,20.712000,20.192000 C22.056000,20.992000,22.056000,20.992000,22.280000,21.184000 C22.632000,21.504000,22.792000,21.728000,22.792000,21.952000 C22.792000,22.368000,22.344000,22.688000,21.736000,22.688000 C21.000000,22.688000,20.168000,22.272000,19.144000,21.408000 C18.344000,20.704000,17.864000,20.000000,17.864000,19.488000 ZM10.216000,15.392000 C10.216000,16.832000,10.408000,18.144000,10.760000,18.944000 C10.984000,19.488000,11.048000,19.648000,11.048000,19.744000 C11.048000,20.064000,10.664000,20.128000,9.160000,20.128000 C8.584000,20.128000,8.456000,20.032000,8.232000,19.488000 C7.752000,18.304000,7.560000,16.960000,7.560000,15.104000 C7.560000,13.632000,7.688000,12.416000,7.880000,11.904000 C8.040000,11.520000,8.264000,11.424000,8.936000,11.424000 C9.000000,11.424000,9.064000,11.424000,9.096000,11.424000 C9.288000,11.424000,9.448000,11.424000,9.576000,11.424000 C9.768000,11.392000,9.864000,11.392000,9.992000,11.392000 C10.376000,11.392000,10.728000,11.616000,10.728000,11.808000 Z" style="fill: rgba(181, 78, 15, 1.000000); stroke-width: 0.000000px; stroke: rgba(255, 244, 224, 1.000000); "/>
</g></svg>