<svg width="48px" height="48px" xmlns="http://www.w3.org/2000/svg" xmlns:xlink="http://www.w3.org/1999/xlink">
<g style="">  <path d="M4.463524,46.988568 L2.826089,46.988568 C2.280274,46.988568,2.007371,46.720941,2.007371,46.185680 L2.007371,34.974992 C2.007371,34.221662,2.302107,33.845002,2.891586,33.845002 L4.299780,33.845002 C4.670934,33.845002,4.916547,33.958991,5.036626,34.186973 C5.156705,34.414954,5.325905,35.202966,5.544231,36.551031 C6.439367,41.745045,8.480682,44.342013,11.668239,44.342013 C13.327515,44.342013,14.631992,43.687815,15.581709,42.379399 C16.531426,41.070983,17.006278,39.485048,17.006278,37.621547 C17.006278,35.698572,16.498678,33.914396,15.483463,32.268964 C14.468248,30.623532,12.508803,28.403223,9.605070,25.607971 C7.356315,23.466928,5.757103,21.806652,4.807385,20.627095 C3.857668,19.447539,3.093539,18.114362,2.514976,16.627526 C1.936413,15.140690,1.647135,13.505195,1.647135,11.720992 C1.647135,8.430128,2.558632,5.724127,4.381652,3.602907 C6.204672,1.481688,8.426104,0.421094,11.046013,0.421094 C12.246805,0.421094,13.534908,0.728369,14.910361,1.342928 C15.521673,1.620470,15.936485,1.759240,16.154811,1.759240 C16.373137,1.759240,16.613292,1.679943,16.875283,1.521347 C17.137274,1.382576,17.464757,1.313191,17.857744,1.313191 L19.069446,1.313191 C19.702591,1.313191,20.019158,1.580817,20.019158,2.116078 L20.019158,11.958884 C20.019158,12.454496,19.779004,12.702299,19.298687,12.702299 L17.792246,12.702299 C17.399260,12.702299,17.142731,12.608134,17.022652,12.419801 C16.902573,12.231469,16.689708,11.512842,16.384052,10.263900 C15.357921,5.961987,13.687754,3.811063,11.373500,3.811063 C10.129044,3.811063,9.130218,4.286844,8.376994,5.238419 C7.623770,6.189994,7.247164,7.290236,7.247164,8.539178 C7.247164,9.986365,7.689267,11.468223,8.573486,12.984796 C9.457706,14.501369,11.220660,16.488743,13.862402,18.946979 C17.246452,22.099072,19.587961,24.869501,20.886999,27.258351 C22.186037,29.647201,22.835547,32.239213,22.835547,35.034465 C22.835547,38.801117,21.749392,41.863953,19.577051,44.223067 C17.404709,46.582180,14.823046,47.761719,11.831982,47.761719 C10.500195,47.761719,8.939189,47.444532,7.148918,46.810148 C6.581271,46.592079,6.177374,46.483046,5.937216,46.483046 C5.718890,46.483046,5.435071,46.582167,5.085749,46.780412 C4.823758,46.919183,4.616352,46.988568,4.463524,46.988568 Z" style="fill: rgba(81, 72, 65, 1.000000); stroke-width: 0.000000px; stroke: rgba(81, 72, 65, 1.000000); "/>
  <path d="M31.997273,25.437791 L31.997273,41.490974 C31.997273,42.517751,32.383535,43.287822,33.156072,43.801211 C33.684650,44.136888,33.948935,44.531796,33.948935,44.985948 L33.948935,46.318776 C33.948935,46.772928,33.684650,47.000000,33.156072,47.000000 L23.641717,47.000000 C23.194459,47.000000,22.970833,46.792673,22.970833,46.378013 L22.970833,44.985948 C22.970833,44.551542,23.235118,44.156634,23.763696,43.801211 C24.536233,43.268077,24.922496,42.498005,24.922496,41.490974 L24.922496,6.422767 C24.922496,5.415736,24.536233,4.655537,23.763696,4.142149 C23.235118,3.806471,22.970833,3.401690,22.970833,2.927793 L22.970833,1.624583 C22.970833,1.170432,23.235118,0.943359,23.763696,0.943359 L31.753315,0.943359 C36.266557,0.943359,39.702262,1.930630,42.060533,3.905201 C44.418803,5.879772,45.597921,8.732985,45.597921,12.464924 C45.597921,18.408383,42.761940,22.248866,37.089892,23.986489 C38.756945,24.776317,40.022464,25.669797,40.886486,26.666956 C41.750507,27.664114,42.416302,29.130211,42.883890,31.065291 L45.110005,40.454330 C45.394624,41.658818,45.674156,42.473316,45.948610,42.897849 C46.223064,43.322382,46.675398,43.722226,47.305626,44.097395 C47.488595,44.215869,47.580078,44.403451,47.580078,44.660145 L47.580078,46.348395 C47.580078,46.782800,47.356452,47.000000,46.909194,47.000000 L40.810249,47.000000 C40.220681,47.000000,39.844583,46.684073,39.681944,46.052211 L35.534661,29.762080 C35.087403,27.965221,34.594410,26.800241,34.055667,26.267107 C33.516924,25.733973,32.830799,25.457537,31.997273,25.437791 ZM31.997273,4.527188 L31.997273,21.913200 C34.192904,21.913200,35.809108,21.241856,36.845934,19.899147 C37.882760,18.556439,38.401165,16.167244,38.401165,12.731490 C38.401165,9.374719,37.877678,7.168169,36.830687,6.111773 C35.783696,5.055378,34.172574,4.527188,31.997273,4.527188 Z" style="fill: rgba(81, 72, 65, 1.000000); stroke-width: 0.000000px; stroke: rgba(81, 72, 65, 1.000000); "/>
</g></svg>