<svg width="288px" height="72px" xmlns="http://www.w3.org/2000/svg" xmlns:xlink="http://www.w3.org/1999/xlink">
<g style="">  <path d="M16.681152,10.976074 L16.681152,39.731445 C16.681152,40.527022,16.971840,41.123696,17.553223,41.521484 C17.951011,41.781577,18.149902,42.087563,18.149902,42.439453 L18.149902,43.472168 C18.149902,43.824058,17.951011,44.000000,17.553223,44.000000 L10.393066,44.000000 C10.056476,44.000000,9.888184,43.839357,9.888184,43.518066 L9.888184,42.439453 C9.888184,42.102863,10.087075,41.796876,10.484863,41.521484 C11.066246,41.108396,11.356934,40.511723,11.356934,39.731445 L11.356934,10.976074 L10.347168,10.976074 C9.597490,10.976074,9.042889,11.259112,8.683350,11.825195 C8.323810,12.391279,7.998699,13.638174,7.708008,15.565918 C7.677409,15.826010,7.516766,15.956055,7.226074,15.956055 L6.331055,15.956055 C5.810870,15.956055,5.550781,15.734214,5.550781,15.290527 L5.550781,8.612305 C5.550781,8.092120,5.795570,7.832031,6.285156,7.832031 C6.591147,7.832031,7.134273,7.893229,7.914551,8.015625 C9.169114,8.214519,10.117673,8.313965,10.760254,8.313965 L18.884277,8.313965 C19.297365,8.252767,19.802243,8.168620,20.398926,8.061523 C21.316899,7.923827,21.821777,7.854980,21.913574,7.854980 C22.326662,7.854980,22.533203,8.046222,22.533203,8.428711 L22.533203,15.290527 C22.533203,15.734214,22.334312,15.956055,21.936523,15.956055 L21.064453,15.956055 C20.712563,15.956055,20.502198,15.856609,20.433350,15.657715 C20.364502,15.458821,20.253581,14.961593,20.100586,14.166016 C19.825194,12.850254,19.542156,11.989667,19.251465,11.584229 C18.960773,11.178790,18.448246,10.976074,17.713867,10.976074 ZM29.509766,26.375000 L29.509766,40.695312 C29.509766,41.215497,29.685708,41.666828,30.037598,42.049316 C30.205893,42.232911,30.290039,42.362955,30.290039,42.439453 L30.290039,43.701660 C30.290039,43.900554,30.182944,44.000000,29.968750,44.000000 L24.277344,44.000000 C24.032551,44.000000,23.910156,43.885255,23.910156,43.655762 L23.910156,42.439453 C23.910156,42.332356,24.009602,42.202312,24.208496,42.049316 C24.713381,41.651528,24.965820,41.108402,24.965820,40.419922 L24.965820,12.375977 C24.965820,11.534501,24.636885,10.953127,23.979004,10.631836 C23.703612,10.494140,23.565918,10.295249,23.565918,10.035156 L23.565918,8.910645 C23.565918,8.635253,23.734211,8.497559,24.070801,8.497559 L29.509766,8.313965 L29.509766,23.965332 C30.963223,22.695469,32.370761,22.060547,33.732422,22.060547 C36.241549,22.060547,37.496094,23.559881,37.496094,26.558594 L37.496094,40.695312 C37.496094,41.169599,37.694985,41.659177,38.092773,42.164062 C38.291668,42.408855,38.391113,42.577148,38.391113,42.668945 L38.391113,43.632812 C38.391113,43.877605,38.276368,44.000000,38.046875,44.000000 L32.447266,44.000000 C32.202473,44.000000,32.080078,43.877605,32.080078,43.632812 L32.080078,42.439453 C32.080078,42.317057,32.164224,42.194662,32.332520,42.072266 C32.745608,41.750975,32.952148,41.368492,32.952148,40.924805 L32.952148,26.765137 C32.952148,25.663569,32.500818,25.112793,31.598145,25.112793 C30.863766,25.112793,30.167647,25.533524,29.509766,26.375000 ZM52.780273,38.400391 C52.428384,42.454773,50.600114,44.481934,47.295410,44.481934 C45.107574,44.481934,43.371100,43.556324,42.085938,41.705078 C40.800775,39.853832,40.158203,37.084654,40.158203,33.397461 C40.158203,29.817365,40.766351,27.002289,41.982666,24.952148 C43.198981,22.902008,44.832184,21.876953,46.882324,21.876953 C48.702971,21.876953,50.171707,22.672518,51.288574,24.263672 C52.405442,25.854826,52.963867,27.958483,52.963867,30.574707 L52.963867,32.502441 C52.963867,32.869631,52.772626,33.053223,52.390137,33.053223 L45.229980,33.053223 L45.229980,34.935059 C45.229980,37.000499,45.428872,38.583979,45.826660,39.685547 C46.224449,40.787115,46.920568,41.337891,47.915039,41.337891 C49.077805,41.337891,49.881020,40.221040,50.324707,37.987305 ZM48.557617,30.528809 L48.557617,27.361816 C48.557617,25.158680,47.991542,24.057129,46.859375,24.057129 C45.773107,24.057129,45.229980,25.464667,45.229980,28.279785 L45.229980,30.528809 ZM65.149902,44.000000 L64.002441,44.000000 C63.619953,44.000000,63.428711,43.793459,63.428711,43.380371 L63.428711,34.728516 C63.428711,34.147133,63.635252,33.856445,64.048340,33.856445 L65.035156,33.856445 C65.295249,33.856445,65.467366,33.944416,65.551514,34.120361 C65.635661,34.296306,65.754231,34.904454,65.907227,35.944824 C66.534508,39.953308,67.964995,41.957520,70.198730,41.957520 C71.361497,41.957520,72.275631,41.452642,72.941162,40.442871 C73.606693,39.433100,73.939453,38.209154,73.939453,36.770996 C73.939453,35.286939,73.583744,33.910000,72.872314,32.640137 C72.160885,31.370274,70.787771,29.656749,68.752930,27.499512 C67.177075,25.847160,66.056400,24.565841,65.390869,23.655518 C64.725338,22.745194,64.189862,21.716314,63.784424,20.568848 C63.378986,19.421381,63.176270,18.159187,63.176270,16.782227 C63.176270,14.242500,63.815016,12.154142,65.092529,10.517090 C66.370042,8.880037,67.926749,8.061523,69.762695,8.061523 C70.604171,8.061523,71.506831,8.298663,72.470703,8.772949 C72.899091,8.987143,73.189778,9.094238,73.342773,9.094238 C73.495769,9.094238,73.664062,9.033041,73.847656,8.910645 C74.031251,8.803548,74.260741,8.750000,74.536133,8.750000 L75.385254,8.750000 C75.828941,8.750000,76.050781,8.956541,76.050781,9.369629 L76.050781,16.965820 C76.050781,17.348309,75.882489,17.539551,75.545898,17.539551 L74.490234,17.539551 C74.214842,17.539551,74.035075,17.466879,73.950928,17.321533 C73.866780,17.176187,73.717612,16.621587,73.503418,15.657715 C72.784339,12.337711,71.613940,10.677734,69.992188,10.677734 C69.120113,10.677734,68.420169,11.044918,67.892334,11.779297 C67.364499,12.513676,67.100586,13.362788,67.100586,14.326660 C67.100586,15.443528,67.410397,16.587152,68.030029,17.757568 C68.649661,18.927984,69.885082,20.461742,71.736328,22.358887 C74.107759,24.791516,75.748612,26.929597,76.658936,28.773193 C77.569259,30.616790,78.024414,32.617177,78.024414,34.774414 C78.024414,37.681330,77.263273,40.045076,75.740967,41.865723 C74.218661,43.686370,72.409516,44.596680,70.313477,44.596680 C69.380204,44.596680,68.286302,44.351890,67.031738,43.862305 C66.633950,43.694010,66.350912,43.609863,66.182617,43.609863 C66.029622,43.609863,65.830730,43.686360,65.585938,43.839355 C65.402343,43.946452,65.256999,44.000000,65.149902,44.000000 ZM92.643066,37.252930 C92.367674,42.072290,90.478208,44.481934,86.974609,44.481934 C84.909169,44.481934,83.210944,43.571624,81.879883,41.750977 C80.548821,39.930329,79.883301,37.145852,79.883301,33.397461 C79.883301,29.465475,80.590895,26.562428,82.006104,24.688232 C83.421312,22.814037,85.199859,21.876953,87.341797,21.876953 C88.795255,21.876953,90.015376,22.309159,91.002197,23.173584 C91.989019,24.038009,92.482422,25.112787,92.482422,26.397949 C92.482422,27.208826,92.252932,27.855222,91.793945,28.337158 C91.334959,28.819094,90.761234,29.060059,90.072754,29.060059 C89.460772,29.060059,88.959719,28.861167,88.569580,28.463379 C88.179441,28.065590,87.984375,27.576012,87.984375,26.994629 C87.984375,26.474444,88.175617,25.931318,88.558105,25.365234 C88.726401,25.120441,88.810547,24.936850,88.810547,24.814453 C88.810547,24.309568,88.405115,24.057129,87.594238,24.057129 C85.834789,24.057129,84.955078,25.824201,84.955078,29.358398 L84.955078,34.659668 C84.955078,39.127138,85.880687,41.360840,87.731934,41.360840 C89.139493,41.360840,89.950357,39.907404,90.164551,37.000488 ZM99.596680,26.375000 L99.596680,40.695312 C99.596680,41.215497,99.772622,41.666828,100.124512,42.049316 C100.292807,42.232911,100.376953,42.362955,100.376953,42.439453 L100.376953,43.701660 C100.376953,43.900554,100.269858,44.000000,100.055664,44.000000 L94.364258,44.000000 C94.119465,44.000000,93.997070,43.885255,93.997070,43.655762 L93.997070,42.439453 C93.997070,42.332356,94.096516,42.202312,94.295410,42.049316 C94.800295,41.651528,95.052734,41.108402,95.052734,40.419922 L95.052734,12.375977 C95.052734,11.534501,94.723799,10.953127,94.065918,10.631836 C93.790526,10.494140,93.652832,10.295249,93.652832,10.035156 L93.652832,8.910645 C93.652832,8.635253,93.821125,8.497559,94.157715,8.497559 L99.596680,8.313965 L99.596680,23.965332 C101.050137,22.695469,102.457675,22.060547,103.819336,22.060547 C106.328463,22.060547,107.583008,23.559881,107.583008,26.558594 L107.583008,40.695312 C107.583008,41.169599,107.781899,41.659177,108.179688,42.164062 C108.378582,42.408855,108.478027,42.577148,108.478027,42.668945 L108.478027,43.632812 C108.478027,43.877605,108.363282,44.000000,108.133789,44.000000 L102.534180,44.000000 C102.289387,44.000000,102.166992,43.877605,102.166992,43.632812 L102.166992,42.439453 C102.166992,42.317057,102.251138,42.194662,102.419434,42.072266 C102.832522,41.750975,103.039062,41.368492,103.039062,40.924805 L103.039062,26.765137 C103.039062,25.663569,102.587732,25.112793,101.685059,25.112793 C100.950680,25.112793,100.254561,25.533524,99.596680,26.375000 ZM113.251465,10.218750 C114.047042,10.218750,114.712562,10.486488,115.248047,11.021973 C115.783531,11.557457,116.051270,12.207678,116.051270,12.972656 C116.051270,13.722334,115.783531,14.364906,115.248047,14.900391 C114.712562,15.435875,114.069991,15.703613,113.320312,15.703613 C112.555335,15.703613,111.905113,15.435875,111.369629,14.900391 C110.834144,14.364906,110.566406,13.722334,110.566406,12.972656 C110.566406,12.177079,110.845619,11.519208,111.404053,10.999023 C111.962487,10.478839,112.578284,10.218750,113.251465,10.218750 ZM115.638184,22.358887 L115.638184,40.351074 C115.638184,41.146651,115.967119,41.712726,116.625000,42.049316 C116.900392,42.202312,117.038086,42.424152,117.038086,42.714844 L117.038086,43.563965 C117.038086,43.854656,116.869793,44.000000,116.533203,44.000000 L110.199219,44.000000 C109.862629,44.000000,109.694336,43.854656,109.694336,43.563965 L109.694336,42.714844 C109.694336,42.408853,109.839680,42.187012,110.130371,42.049316 C110.772952,41.728026,111.094238,41.161951,111.094238,40.351074 L111.094238,26.145508 C111.094238,25.319332,110.765303,24.737957,110.107422,24.401367 C109.832030,24.248372,109.694336,24.049480,109.694336,23.804688 L109.694336,22.955566 C109.694336,22.680174,109.862629,22.534831,110.199219,22.519531 ZM119.264160,40.419922 L119.264160,26.145508 C119.264160,25.304032,118.935225,24.722658,118.277344,24.401367 C118.001952,24.263671,117.864258,24.064780,117.864258,23.804688 L117.864258,22.955566 C117.864258,22.680174,118.032550,22.534831,118.369141,22.519531 L123.808105,22.358887 L123.808105,24.240723 C125.108568,22.848463,126.531405,22.152344,128.076660,22.152344 C129.224127,22.152344,130.122962,22.596024,130.773193,23.483398 C131.423424,24.370773,131.748535,25.525872,131.748535,26.948730 L131.748535,40.695312 C131.748535,41.169599,131.955076,41.659177,132.368164,42.164062 C132.567058,42.408855,132.666504,42.577148,132.666504,42.668945 L132.666504,43.632812 C132.666504,43.877605,132.551759,44.000000,132.322266,44.000000 L126.722656,44.000000 C126.462564,44.000000,126.332520,43.877605,126.332520,43.632812 L126.332520,42.439453 C126.332520,42.317057,126.416666,42.194662,126.584961,42.072266 C126.998049,41.750975,127.204590,41.368492,127.204590,40.924805 L127.204590,26.948730 C127.204590,25.831863,126.806807,25.273438,126.011230,25.273438 C125.246253,25.273438,124.511885,25.732417,123.808105,26.650391 L123.808105,40.695312 C123.808105,41.215497,123.984048,41.666828,124.335938,42.049316 C124.504233,42.232911,124.588379,42.362955,124.588379,42.439453 L124.588379,43.701660 C124.588379,43.900554,124.481284,44.000000,124.267090,44.000000 L118.575684,44.000000 C118.330891,44.000000,118.208496,43.885255,118.208496,43.655762 L118.208496,42.439453 C118.208496,42.332356,118.307942,42.202312,118.506836,42.049316 C119.011721,41.651528,119.264160,41.108402,119.264160,40.419922 ZM143.269043,23.253906 L143.269043,12.100586 C143.269043,11.259110,142.947757,10.677736,142.305176,10.356445 C142.014484,10.218749,141.869141,10.019858,141.869141,9.759766 L141.869141,8.910645 C141.869141,8.635253,142.045083,8.497559,142.396973,8.497559 L147.812988,8.313965 L147.812988,40.488770 C147.812988,41.177250,148.004230,41.674478,148.386719,41.980469 C148.570313,42.133464,148.662109,42.385903,148.662109,42.737793 L148.662109,43.724609 C148.662109,44.000001,148.524415,44.137695,148.249023,44.137695 L143.269043,44.137695 L143.269043,41.957520 C142.029779,43.518074,140.752285,44.298340,139.436523,44.298340 C136.116520,44.298340,134.456543,40.993685,134.456543,34.384277 C134.456543,26.046020,136.254214,21.876953,139.849609,21.876953 C140.905279,21.876953,142.045079,22.335933,143.269043,23.253906 ZM143.269043,25.525879 C142.626462,25.036293,142.045087,24.791504,141.524902,24.791504 C140.515132,24.791504,139.899334,25.533521,139.677490,27.017578 C139.455647,28.501635,139.344727,30.161612,139.344727,31.997559 L139.344727,36.082520 C139.344727,39.616717,139.987298,41.383789,141.272461,41.383789 C141.991540,41.383789,142.657061,40.909510,143.269043,39.960938 ZM155.891113,8.313965 L155.891113,40.351074 C155.891113,41.146651,156.220049,41.712726,156.877930,42.049316 C157.153322,42.202312,157.291016,42.424152,157.291016,42.714844 L157.291016,43.563965 C157.291016,43.854656,157.122723,44.000000,156.786133,44.000000 L150.452148,44.000000 C150.115558,44.000000,149.947266,43.854656,149.947266,43.563965 L149.947266,42.714844 C149.947266,42.408853,150.092609,42.187012,150.383301,42.049316 C151.025882,41.728026,151.347168,41.161951,151.347168,40.351074 L151.347168,12.100586 C151.347168,11.274410,151.018232,10.693036,150.360352,10.356445 C150.084960,10.218749,149.947266,10.019858,149.947266,9.759766 L149.947266,8.910645 C149.947266,8.635253,150.115558,8.497559,150.452148,8.497559 ZM171.290039,38.400391 C170.938149,42.454773,169.109880,44.481934,165.805176,44.481934 C163.617339,44.481934,161.880866,43.556324,160.595703,41.705078 C159.310540,39.853832,158.667969,37.084654,158.667969,33.397461 C158.667969,29.817365,159.276117,27.002289,160.492432,24.952148 C161.708746,22.902008,163.341949,21.876953,165.392090,21.876953 C167.212737,21.876953,168.681472,22.672518,169.798340,24.263672 C170.915207,25.854826,171.473633,27.958483,171.473633,30.574707 L171.473633,32.502441 C171.473633,32.869631,171.282391,33.053223,170.899902,33.053223 L163.739746,33.053223 L163.739746,34.935059 C163.739746,37.000499,163.938637,38.583979,164.336426,39.685547 C164.734214,40.787115,165.430334,41.337891,166.424805,41.337891 C167.587571,41.337891,168.390786,40.221040,168.834473,37.987305 ZM167.067383,30.528809 L167.067383,27.361816 C167.067383,25.158680,166.501308,24.057129,165.369141,24.057129 C164.282872,24.057129,163.739746,25.464667,163.739746,28.279785 L163.739746,30.528809 ZM177.968262,26.994629 C178.978032,23.705224,180.393220,22.060547,182.213867,22.060547 C182.948246,22.060547,183.525795,22.312986,183.946533,22.817871 C184.367271,23.322756,184.577637,23.919430,184.577637,24.607910 C184.577637,25.296390,184.378745,25.881589,183.980957,26.363525 C183.583169,26.845461,183.062991,27.086426,182.420410,27.086426 C181.716631,27.086426,181.074059,26.742191,180.492676,26.053711 C179.391108,27.813160,178.840332,29.916817,178.840332,32.364746 L178.840332,40.167480 C178.840332,40.855960,179.131019,41.475583,179.712402,42.026367 C179.957195,42.240561,180.079590,42.401204,180.079590,42.508301 L180.079590,43.655762 C180.079590,43.885255,179.980144,44.000000,179.781250,44.000000 L173.516113,44.000000 C173.332519,44.000000,173.240723,43.923503,173.240723,43.770508 L173.240723,42.347656 C173.240723,42.209960,173.347818,42.095215,173.562012,42.003418 C174.051598,41.773925,174.296387,41.337894,174.296387,40.695312 L174.296387,26.535645 C174.296387,25.724768,174.043948,25.059247,173.539062,24.539062 C173.340168,24.324869,173.240723,24.156576,173.240723,24.034180 L173.240723,22.909668 C173.240723,22.603677,173.454913,22.443034,173.883301,22.427734 L177.968262,22.358887 ZM200.550293,27.292969 L200.550293,39.731445 C200.550293,40.527022,200.840980,41.123696,201.422363,41.521484 C201.820152,41.781577,202.019043,42.087563,202.019043,42.439453 L202.019043,43.472168 C202.019043,43.824058,201.820152,44.000000,201.422363,44.000000 L194.262207,44.000000 C193.925617,44.000000,193.757324,43.839357,193.757324,43.518066 L193.757324,42.439453 C193.757324,42.102863,193.956215,41.796876,194.354004,41.521484 C194.935387,41.108396,195.226074,40.511723,195.226074,39.731445 L195.226074,12.559570 C195.226074,11.779293,194.935387,11.190269,194.354004,10.792480 C193.956215,10.532388,193.757324,10.218752,193.757324,9.851562 L193.757324,8.841797 C193.757324,8.489907,193.956215,8.313965,194.354004,8.313965 L200.366699,8.313965 C203.763201,8.313965,206.348787,9.078931,208.123535,10.608887 C209.898284,12.138842,210.785645,14.349595,210.785645,17.241211 C210.785645,21.846377,208.651389,24.822096,204.382812,26.168457 C205.637376,26.780439,206.589759,27.472734,207.239990,28.245361 C207.890221,29.017989,208.391274,30.153964,208.743164,31.653320 L210.418457,38.928223 C210.632651,39.861496,210.843017,40.492593,211.049561,40.821533 C211.256105,41.150474,211.596515,41.460285,212.070801,41.750977 C212.208497,41.842774,212.277344,41.988117,212.277344,42.187012 L212.277344,43.495117 C212.277344,43.831707,212.109051,44.000000,211.772461,44.000000 L207.182617,44.000000 C206.738930,44.000000,206.455893,43.755211,206.333496,43.265625 L203.212402,30.643555 C202.875812,29.251295,202.504803,28.348635,202.099365,27.935547 C201.693927,27.522459,201.177575,27.308268,200.550293,27.292969 ZM200.550293,11.090820 L200.550293,24.562012 C202.202645,24.562012,203.418941,24.041835,204.199219,23.001465 C204.979496,21.961095,205.369629,20.109877,205.369629,17.447754 C205.369629,14.846829,204.975671,13.137130,204.187744,12.318604 C203.399817,11.500077,202.187345,11.090820,200.550293,11.090820 ZM226.230469,38.400391 C225.878579,42.454773,224.050309,44.481934,220.745605,44.481934 C218.557769,44.481934,216.821295,43.556324,215.536133,41.705078 C214.250970,39.853832,213.608398,37.084654,213.608398,33.397461 C213.608398,29.817365,214.216547,27.002289,215.432861,24.952148 C216.649176,22.902008,218.282379,21.876953,220.332520,21.876953 C222.153167,21.876953,223.621902,22.672518,224.738770,24.263672 C225.855637,25.854826,226.414062,27.958483,226.414062,30.574707 L226.414062,32.502441 C226.414062,32.869631,226.222821,33.053223,225.840332,33.053223 L218.680176,33.053223 L218.680176,34.935059 C218.680176,37.000499,218.879067,38.583979,219.276855,39.685547 C219.674644,40.787115,220.370763,41.337891,221.365234,41.337891 C222.528001,41.337891,223.331215,40.221040,223.774902,37.987305 ZM222.007812,30.528809 L222.007812,27.361816 C222.007812,25.158680,221.441737,24.057129,220.309570,24.057129 C219.223302,24.057129,218.680176,25.464667,218.680176,28.279785 L218.680176,30.528809 ZM229.145020,47.625977 L229.145020,26.099609 C229.145020,25.258134,228.816084,24.676759,228.158203,24.355469 C227.882811,24.217773,227.745117,24.018882,227.745117,23.758789 L227.745117,22.909668 C227.745117,22.634276,227.913410,22.496582,228.250000,22.496582 L233.551270,22.312988 L233.551270,24.493164 C234.775234,22.932609,236.068027,22.152344,237.429688,22.152344 C239.082040,22.152344,240.348059,23.112376,241.227783,25.032471 C242.107508,26.952565,242.547363,29.480779,242.547363,32.617188 C242.547363,34.881522,242.344647,36.981354,241.939209,38.916748 C241.533771,40.852142,240.990645,42.263505,240.309814,43.150879 C239.628984,44.038253,238.722499,44.481934,237.590332,44.481934 C236.136874,44.481934,234.836432,43.877610,233.688965,42.668945 L233.688965,47.878418 C233.688965,48.582198,233.903155,49.102375,234.331543,49.438965 C234.561036,49.607260,234.675781,49.783202,234.675781,49.966797 L234.675781,51.206055 C234.675781,51.420248,234.591635,51.527344,234.423340,51.527344 L228.295898,51.527344 C228.051106,51.527344,227.928711,51.420248,227.928711,51.206055 L227.928711,49.966797 C227.928711,49.798502,228.043456,49.637859,228.272949,49.484863 C228.854332,49.132974,229.145020,48.513351,229.145020,47.625977 ZM233.688965,26.007812 L233.688965,40.396973 C234.377445,41.146651,234.997068,41.521484,235.547852,41.521484 C236.312829,41.521484,236.855955,40.936285,237.177246,39.765869 C237.498537,38.595453,237.659180,36.258481,237.659180,32.754883 C237.659180,29.603174,237.479413,27.533940,237.119873,26.547119 C236.760333,25.560298,236.221032,25.066895,235.501953,25.066895 C234.935870,25.066895,234.331546,25.380531,233.688965,26.007812 ZM251.428711,21.876953 C256.263371,21.876953,258.680664,25.678836,258.680664,33.282715 C258.680664,36.862811,258.083990,39.624339,256.890625,41.567383 C255.697260,43.510426,253.976085,44.481934,251.727051,44.481934 C249.447417,44.481934,247.691819,43.529551,246.460205,41.624756 C245.228591,39.719961,244.612793,36.893411,244.612793,33.145020 C244.612793,29.228333,245.255365,26.371184,246.540527,24.573486 C247.825690,22.775789,249.455068,21.876953,251.428711,21.876953 ZM253.654785,30.987793 C253.654785,28.371569,253.494142,26.577723,253.172852,25.606201 C252.851561,24.634679,252.331384,24.148926,251.612305,24.148926 C250.281243,24.148926,249.615723,26.000144,249.615723,29.702637 L249.615723,34.889160 C249.615723,37.643080,249.764891,39.551671,250.063232,40.614990 C250.361574,41.678309,250.908525,42.209961,251.704102,42.209961 C252.377282,42.209961,252.870685,41.800704,253.184326,40.982178 C253.497967,40.163652,253.654785,38.652843,253.654785,36.449707 ZM265.267090,26.994629 C266.276861,23.705224,267.692048,22.060547,269.512695,22.060547 C270.247074,22.060547,270.824624,22.312986,271.245361,22.817871 C271.666099,23.322756,271.876465,23.919430,271.876465,24.607910 C271.876465,25.296390,271.677574,25.881589,271.279785,26.363525 C270.881997,26.845461,270.361820,27.086426,269.719238,27.086426 C269.015459,27.086426,268.372887,26.742191,267.791504,26.053711 C266.689936,27.813160,266.139160,29.916817,266.139160,32.364746 L266.139160,40.167480 C266.139160,40.855960,266.429847,41.475583,267.011230,42.026367 C267.256023,42.240561,267.378418,42.401204,267.378418,42.508301 L267.378418,43.655762 C267.378418,43.885255,267.278972,44.000000,267.080078,44.000000 L260.814941,44.000000 C260.631347,44.000000,260.539551,43.923503,260.539551,43.770508 L260.539551,42.347656 C260.539551,42.209960,260.646646,42.095215,260.860840,42.003418 C261.350426,41.773925,261.595215,41.337894,261.595215,40.695312 L261.595215,26.535645 C261.595215,25.724768,261.342776,25.059247,260.837891,24.539062 C260.638996,24.324869,260.539551,24.156576,260.539551,24.034180 L260.539551,22.909668 C260.539551,22.603677,260.753741,22.443034,261.182129,22.427734 L265.267090,22.358887 ZM273.804199,24.837402 L273.000977,24.837402 C272.649087,24.837402,272.473145,24.684409,272.473145,24.378418 L272.473145,23.230957 C272.473145,22.909666,272.641437,22.618979,272.978027,22.358887 C273.421714,22.037596,273.704752,21.674237,273.827148,21.268799 C273.949545,20.863361,274.010742,20.201665,274.010742,19.283691 L274.010742,15.520020 C274.010742,15.152830,274.255531,14.938640,274.745117,14.877441 L277.544922,14.579102 C277.789715,14.548502,277.950358,14.533203,278.026855,14.533203 C278.241049,14.533203,278.348145,14.716795,278.348145,15.083984 L278.348145,22.358887 L280.688965,22.358887 C281.132652,22.358887,281.354492,22.534829,281.354492,22.886719 L281.354492,24.286621 C281.354492,24.653810,281.178550,24.837402,280.826660,24.837402 L278.348145,24.837402 L278.348145,38.790527 C278.348145,40.305183,278.814774,41.062500,279.748047,41.062500 C279.962241,41.062500,280.191731,41.031901,280.436523,40.970703 C280.604819,40.924804,280.734863,40.901855,280.826660,40.901855 C281.102052,40.901855,281.277994,41.008951,281.354492,41.223145 L281.698730,42.324707 C281.744629,42.416504,281.767578,42.485351,281.767578,42.531250 C281.767578,42.867840,281.262700,43.277097,280.252930,43.759033 C279.243159,44.240969,278.294601,44.481934,277.407227,44.481934 C275.005196,44.481934,273.804199,42.990249,273.804199,40.006836 Z" style="fill: rgba(181, 78, 15, 1.000000); stroke-width: 0.000000px; stroke: rgba(255, 244, 224, 1.000000); "/>
  <path d="M14.718750,59.226562 C15.208336,59.736982,15.591144,60.352861,15.867188,61.074219 C16.143231,61.795577,16.281250,62.593746,16.281250,63.468750 C16.281250,64.348963,16.140626,65.148434,15.859375,65.867188 C15.578124,66.585941,15.187502,67.197914,14.687500,67.703125 C14.203123,68.203127,13.640628,68.588540,13.000000,68.859375 C12.359372,69.130210,11.677087,69.265625,10.953125,69.265625 C10.182288,69.265625,9.470055,69.121095,8.816406,68.832031 C8.162757,68.542967,7.601565,68.140628,7.132812,67.625000 C6.664060,67.119789,6.295574,66.506514,6.027344,65.785156 C5.759113,65.063798,5.625000,64.291671,5.625000,63.468750 C5.625000,62.567704,5.765624,61.764326,6.046875,61.058594 C6.328126,60.352861,6.716143,59.742190,7.210938,59.226562 C7.700523,58.716143,8.269528,58.325522,8.917969,58.054688 C9.566409,57.783853,10.244788,57.648438,10.953125,57.648438 C11.687504,57.648438,12.380205,57.786457,13.031250,58.062500 C13.682295,58.338543,14.244789,58.726560,14.718750,59.226562 ZM13.554688,67.085938 C13.846356,66.611977,14.058593,66.075524,14.191406,65.476562 C14.324219,64.877601,14.390625,64.208337,14.390625,63.468750 C14.390625,62.708330,14.316407,62.010420,14.167969,61.375000 C14.019531,60.739580,13.802085,60.197919,13.515625,59.750000 C13.229165,59.307289,12.869794,58.962241,12.437500,58.714844 C12.005206,58.467447,11.510419,58.343750,10.953125,58.343750 C10.328122,58.343750,9.796877,58.486978,9.359375,58.773438 C8.921873,59.059897,8.565106,59.442706,8.289062,59.921875 C8.028645,60.380211,7.834636,60.916664,7.707031,61.531250 C7.579426,62.145836,7.515625,62.791663,7.515625,63.468750 C7.515625,64.218754,7.583333,64.895830,7.718750,65.500000 C7.854167,66.104170,8.067707,66.640623,8.359375,67.109375 C8.640626,67.567711,8.994790,67.925780,9.421875,68.183594 C9.848960,68.441408,10.359372,68.570312,10.953125,68.570312 C11.510419,68.570312,12.013019,68.440105,12.460938,68.179688 C12.908856,67.919270,13.273436,67.554690,13.554688,67.085938 ZM29.046875,58.468750 C28.901041,58.473958,28.677085,58.515625,28.375000,58.593750 C28.072915,58.671875,27.856771,58.752604,27.726562,58.835938 C27.539062,58.966146,27.412761,59.216144,27.347656,59.585938 C27.282552,59.955731,27.250000,60.424476,27.250000,60.992188 L27.250000,69.109375 L26.570312,69.109375 L19.851562,60.039062 L19.851562,65.757812 C19.851562,66.398441,19.891927,66.890623,19.972656,67.234375 C20.053386,67.578127,20.177083,67.822916,20.343750,67.968750 C20.463542,68.083334,20.710936,68.190104,21.085938,68.289062 C21.460939,68.388021,21.708333,68.440104,21.828125,68.445312 L21.828125,69.000000 L17.281250,69.000000 L17.281250,68.445312 C17.421876,68.434896,17.658852,68.384115,17.992188,68.292969 C18.325522,68.201822,18.533854,68.119792,18.617188,68.046875 C18.799480,67.901041,18.924479,67.678387,18.992188,67.378906 C19.059896,67.079426,19.093750,66.567712,19.093750,65.843750 L19.093750,60.382812 C19.093750,60.143228,19.052084,59.903647,18.968750,59.664062 C18.885416,59.424478,18.773438,59.239584,18.632812,59.109375 C18.445312,58.937499,18.191408,58.790365,17.871094,58.667969 C17.550780,58.545572,17.291668,58.479167,17.093750,58.468750 L17.093750,57.914062 L20.257812,57.914062 L26.492188,66.367188 L26.492188,61.093750 C26.492188,60.447913,26.450521,59.951825,26.367188,59.605469 C26.283854,59.259113,26.164063,59.028646,26.007812,58.914062 C25.861978,58.815104,25.623700,58.718750,25.292969,58.625000 C24.962238,58.531250,24.710938,58.479167,24.539062,58.468750 L24.539062,57.914062 L29.046875,57.914062 ZM49.306641,69.000000 L43.554688,69.000000 L43.554688,68.306641 C43.710938,68.293620,43.937173,68.274089,44.233398,68.248047 C44.529624,68.222005,44.733072,68.182943,44.843750,68.130859 C45.039063,68.052734,45.182291,67.933920,45.273438,67.774414 C45.364584,67.614908,45.410156,67.408204,45.410156,67.154297 L45.410156,62.222656 L38.896484,62.222656 L38.896484,67.046875 C38.896484,67.274741,38.933919,67.466796,39.008789,67.623047 C39.083659,67.779298,39.231770,67.916015,39.453125,68.033203 C39.563803,68.091797,39.760741,68.150390,40.043945,68.208984 C40.327150,68.267578,40.550129,68.300130,40.712891,68.306641 L40.712891,69.000000 L34.960938,69.000000 L34.960938,68.306641 C35.117188,68.293620,35.343423,68.274089,35.639648,68.248047 C35.935874,68.222005,36.139322,68.182943,36.250000,68.130859 C36.445313,68.052734,36.588541,67.933920,36.679688,67.774414 C36.770834,67.614908,36.816406,67.408204,36.816406,67.154297 L36.816406,57.154297 C36.816406,56.945963,36.774089,56.755535,36.689453,56.583008 C36.604817,56.410481,36.458334,56.275391,36.250000,56.177734 C36.074218,56.093099,35.861004,56.018229,35.610352,55.953125 C35.359699,55.888021,35.143230,55.848958,34.960938,55.835938 L34.960938,55.142578 L40.712891,55.142578 L40.712891,55.835938 C40.530598,55.842448,40.307619,55.871745,40.043945,55.923828 C39.780272,55.975912,39.583334,56.024739,39.453125,56.070312 C39.231770,56.148438,39.083659,56.278645,39.008789,56.460938 C38.933919,56.643230,38.896484,56.841796,38.896484,57.056641 L38.896484,61.353516 L45.410156,61.353516 L45.410156,57.154297 C45.410156,56.945963,45.367839,56.755535,45.283203,56.583008 C45.198567,56.410481,45.052084,56.275391,44.843750,56.177734 C44.667968,56.093099,44.454754,56.018229,44.204102,55.953125 C43.953449,55.888021,43.736980,55.848958,43.554688,55.835938 L43.554688,55.142578 L49.306641,55.142578 L49.306641,55.835938 C49.124348,55.842448,48.901369,55.871745,48.637695,55.923828 C48.374022,55.975912,48.177084,56.024739,48.046875,56.070312 C47.825520,56.148438,47.677409,56.278645,47.602539,56.460938 C47.527669,56.643230,47.490234,56.841796,47.490234,57.056641 L47.490234,67.046875 C47.490234,67.274741,47.527669,67.466796,47.602539,67.623047 C47.677409,67.779298,47.825520,67.916015,48.046875,68.033203 C48.157553,68.091797,48.354491,68.150390,48.637695,68.208984 C48.920900,68.267578,49.143879,68.300130,49.306641,68.306641 ZM62.910156,64.917969 L62.646484,69.000000 L51.142578,69.000000 L51.142578,68.306641 C51.337892,68.293620,51.598306,68.265951,51.923828,68.223633 C52.249351,68.181315,52.460937,68.137370,52.558594,68.091797 C52.766928,67.994140,52.911783,67.867188,52.993164,67.710938 C53.074545,67.554687,53.115234,67.356121,53.115234,67.115234 L53.115234,57.154297 C53.115234,56.939452,53.079427,56.749024,53.007812,56.583008 C52.936198,56.416991,52.786459,56.281902,52.558594,56.177734 C52.382812,56.093099,52.146811,56.018229,51.850586,55.953125 C51.554360,55.888021,51.318360,55.848958,51.142578,55.835938 L51.142578,55.142578 L61.865234,55.142578 L61.865234,58.482422 L61.132812,58.482422 C61.002604,57.987628,60.721031,57.461917,60.288086,56.905273 C59.855141,56.348630,59.443361,56.044271,59.052734,55.992188 C58.850910,55.966146,58.610027,55.946615,58.330078,55.933594 C58.050129,55.920573,57.731122,55.914062,57.373047,55.914062 L55.195312,55.914062 L55.195312,61.421875 L56.757812,61.421875 C57.259117,61.421875,57.625324,61.374675,57.856445,61.280273 C58.087566,61.185872,58.291015,61.027996,58.466797,60.806641 C58.610027,60.617838,58.732096,60.365561,58.833008,60.049805 C58.933920,59.734048,59.000651,59.436199,59.033203,59.156250 L59.765625,59.156250 L59.765625,64.576172 L59.033203,64.576172 C59.007161,64.263670,58.937175,63.933270,58.823242,63.584961 C58.709309,63.236652,58.590495,62.984376,58.466797,62.828125 C58.264973,62.574217,58.035483,62.408204,57.778320,62.330078 C57.521158,62.251953,57.180992,62.212891,56.757812,62.212891 L55.195312,62.212891 L55.195312,66.373047 C55.195312,66.789716,55.224609,67.118488,55.283203,67.359375 C55.341797,67.600262,55.455728,67.782551,55.625000,67.906250 C55.794272,68.029949,56.025389,68.109700,56.318359,68.145508 C56.611330,68.181315,57.027992,68.199219,57.568359,68.199219 C57.783204,68.199219,58.066404,68.199219,58.417969,68.199219 C58.769533,68.199219,59.065754,68.186198,59.306641,68.160156 C59.554038,68.134114,59.809569,68.086914,60.073242,68.018555 C60.336915,67.950195,60.524088,67.857422,60.634766,67.740234 C60.934246,67.427733,61.248371,66.954105,61.577148,66.319336 C61.905926,65.684567,62.115885,65.217449,62.207031,64.917969 ZM77.246094,69.000000 L71.474609,69.000000 L71.474609,68.306641 C71.982424,68.274088,72.403970,68.208985,72.739258,68.111328 C73.074546,68.013671,73.242188,67.893230,73.242188,67.750000 C73.242188,67.691406,73.235677,67.619792,73.222656,67.535156 C73.209635,67.450520,73.190104,67.375651,73.164062,67.310547 L72.011719,64.205078 L67.158203,64.205078 C66.975911,64.660810,66.827800,65.057941,66.713867,65.396484 C66.599934,65.735028,66.497396,66.047525,66.406250,66.333984 C66.321614,66.613934,66.263021,66.841796,66.230469,67.017578 C66.197917,67.193360,66.181641,67.336588,66.181641,67.447266 C66.181641,67.707684,66.386717,67.909504,66.796875,68.052734 C67.207033,68.195964,67.669268,68.280599,68.183594,68.306641 L68.183594,69.000000 L62.968750,69.000000 L62.968750,68.306641 C63.138022,68.293620,63.349608,68.256185,63.603516,68.194336 C63.857423,68.132487,64.065754,68.049480,64.228516,67.945312 C64.488934,67.769530,64.690754,67.585613,64.833984,67.393555 C64.977214,67.201496,65.117187,66.936200,65.253906,66.597656 C65.950524,64.859366,66.718746,62.906261,67.558594,60.738281 C68.398442,58.570302,69.147132,56.639982,69.804688,54.947266 L70.585938,54.947266 L75.205078,66.900391 C75.302735,67.154298,75.413411,67.359374,75.537109,67.515625 C75.660808,67.671876,75.833332,67.824869,76.054688,67.974609 C76.204428,68.065756,76.399738,68.142252,76.640625,68.204102 C76.881512,68.265951,77.083333,68.300130,77.246094,68.306641 ZM71.660156,63.335938 L69.560547,57.964844 L67.500000,63.335938 ZM88.867188,64.878906 L88.574219,69.000000 L77.744141,69.000000 L77.744141,68.306641 C77.900391,68.293620,78.126626,68.270833,78.422852,68.238281 C78.719077,68.205729,78.925781,68.163412,79.042969,68.111328 C79.238282,68.026692,79.379882,67.902996,79.467773,67.740234 C79.555665,67.577473,79.599609,67.369142,79.599609,67.115234 L79.599609,57.193359 C79.599609,56.972004,79.562175,56.776694,79.487305,56.607422 C79.412435,56.438150,79.264324,56.301433,79.042969,56.197266 C78.893228,56.119140,78.683270,56.042644,78.413086,55.967773 C78.142902,55.892903,77.919923,55.848958,77.744141,55.835938 L77.744141,55.142578 L83.593750,55.142578 L83.593750,55.835938 C83.411457,55.842448,83.175457,55.875000,82.885742,55.933594 C82.596027,55.992188,82.386068,56.044271,82.255859,56.089844 C82.034504,56.167969,81.883138,56.301431,81.801758,56.490234 C81.720377,56.679037,81.679688,56.880858,81.679688,57.095703 L81.679688,66.402344 C81.679688,66.832033,81.700846,67.165689,81.743164,67.403320 C81.785482,67.640952,81.884765,67.824869,82.041016,67.955078 C82.190756,68.072266,82.413735,68.148763,82.709961,68.184570 C83.006186,68.220378,83.421221,68.238281,83.955078,68.238281 C84.195965,68.238281,84.446613,68.231771,84.707031,68.218750 C84.967449,68.205729,85.214843,68.179688,85.449219,68.140625 C85.677084,68.101562,85.887043,68.047852,86.079102,67.979492 C86.271160,67.911132,86.412760,67.824870,86.503906,67.720703 C86.770835,67.421222,87.081704,66.967125,87.436523,66.358398 C87.791343,65.749671,88.037109,65.256512,88.173828,64.878906 ZM101.074219,58.902344 L100.400391,58.902344 C100.341797,58.667968,100.236003,58.389650,100.083008,58.067383 C99.930012,57.745116,99.759116,57.440757,99.570312,57.154297 C99.374999,56.854816,99.161785,56.592775,98.930664,56.368164 C98.699543,56.143554,98.476564,56.014974,98.261719,55.982422 C98.059895,55.956380,97.805991,55.936849,97.500000,55.923828 C97.194009,55.910807,96.910809,55.904297,96.650391,55.904297 L96.083984,55.904297 L96.083984,66.988281 C96.083984,67.203126,96.129557,67.400064,96.220703,67.579102 C96.311849,67.758139,96.471353,67.896484,96.699219,67.994141 C96.816407,68.039714,97.062173,68.101562,97.436523,68.179688 C97.810874,68.257813,98.102213,68.300130,98.310547,68.306641 L98.310547,69.000000 L91.767578,69.000000 L91.767578,68.306641 C91.949871,68.293620,92.228188,68.267578,92.602539,68.228516 C92.976890,68.189453,93.235676,68.140625,93.378906,68.082031 C93.593751,67.997395,93.751627,67.875326,93.852539,67.715820 C93.953451,67.556314,94.003906,67.343100,94.003906,67.076172 L94.003906,55.904297 L93.437500,55.904297 C93.235676,55.904297,92.985028,55.909180,92.685547,55.918945 C92.386066,55.928711,92.099611,55.949870,91.826172,55.982422 C91.611327,56.008464,91.388348,56.137043,91.157227,56.368164 C90.926106,56.599285,90.712892,56.861327,90.517578,57.154297 C90.322265,57.447267,90.149740,57.758136,90.000000,58.086914 C89.850260,58.415692,89.746094,58.687499,89.687500,58.902344 L89.003906,58.902344 L89.003906,55.142578 L101.074219,55.142578 ZM116.533203,69.000000 L110.781250,69.000000 L110.781250,68.306641 C110.937501,68.293620,111.163735,68.274089,111.459961,68.248047 C111.756186,68.222005,111.959635,68.182943,112.070312,68.130859 C112.265626,68.052734,112.408854,67.933920,112.500000,67.774414 C112.591146,67.614908,112.636719,67.408204,112.636719,67.154297 L112.636719,62.222656 L106.123047,62.222656 L106.123047,67.046875 C106.123047,67.274741,106.160481,67.466796,106.235352,67.623047 C106.310222,67.779298,106.458332,67.916015,106.679688,68.033203 C106.790365,68.091797,106.987303,68.150390,107.270508,68.208984 C107.553712,68.267578,107.776692,68.300130,107.939453,68.306641 L107.939453,69.000000 L102.187500,69.000000 L102.187500,68.306641 C102.343751,68.293620,102.569985,68.274089,102.866211,68.248047 C103.162436,68.222005,103.365885,68.182943,103.476562,68.130859 C103.671876,68.052734,103.815104,67.933920,103.906250,67.774414 C103.997396,67.614908,104.042969,67.408204,104.042969,67.154297 L104.042969,57.154297 C104.042969,56.945963,104.000651,56.755535,103.916016,56.583008 C103.831380,56.410481,103.684897,56.275391,103.476562,56.177734 C103.300780,56.093099,103.087566,56.018229,102.836914,55.953125 C102.586262,55.888021,102.369793,55.848958,102.187500,55.835938 L102.187500,55.142578 L107.939453,55.142578 L107.939453,55.835938 C107.757161,55.842448,107.534181,55.871745,107.270508,55.923828 C107.006835,55.975912,106.809896,56.024739,106.679688,56.070312 C106.458332,56.148438,106.310222,56.278645,106.235352,56.460938 C106.160481,56.643230,106.123047,56.841796,106.123047,57.056641 L106.123047,61.353516 L112.636719,61.353516 L112.636719,57.154297 C112.636719,56.945963,112.594401,56.755535,112.509766,56.583008 C112.425130,56.410481,112.278647,56.275391,112.070312,56.177734 C111.894530,56.093099,111.681316,56.018229,111.430664,55.953125 C111.180012,55.888021,110.963543,55.848958,110.781250,55.835938 L110.781250,55.142578 L116.533203,55.142578 L116.533203,55.835938 C116.350911,55.842448,116.127931,55.871745,115.864258,55.923828 C115.600585,55.975912,115.403646,56.024739,115.273438,56.070312 C115.052082,56.148438,114.903972,56.278645,114.829102,56.460938 C114.754231,56.643230,114.716797,56.841796,114.716797,57.056641 L114.716797,67.046875 C114.716797,67.274741,114.754231,67.466796,114.829102,67.623047 C114.903972,67.779298,115.052082,67.916015,115.273438,68.033203 C115.384115,68.091797,115.581053,68.150390,115.864258,68.208984 C116.147462,68.267578,116.370442,68.300130,116.533203,68.306641 ZM133.455078,69.000000 L128.837891,69.000000 L128.837891,68.445312 C129.244143,68.419271,129.581379,68.367188,129.849609,68.289062 C130.117840,68.210937,130.251953,68.114584,130.251953,68.000000 C130.251953,67.953125,130.246745,67.895834,130.236328,67.828125 C130.225911,67.760416,130.210287,67.700521,130.189453,67.648438 L129.267578,65.164062 L125.384766,65.164062 C125.238932,65.528648,125.120443,65.846353,125.029297,66.117188 C124.938151,66.388022,124.856120,66.638020,124.783203,66.867188 C124.715494,67.091147,124.668620,67.273437,124.642578,67.414062 C124.616536,67.554688,124.603516,67.669270,124.603516,67.757812 C124.603516,67.966147,124.767576,68.127604,125.095703,68.242188 C125.423830,68.356771,125.793618,68.424479,126.205078,68.445312 L126.205078,69.000000 L122.033203,69.000000 L122.033203,68.445312 C122.168620,68.434896,122.337890,68.404948,122.541016,68.355469 C122.744142,68.305989,122.910807,68.239584,123.041016,68.156250 C123.249350,68.015624,123.410807,67.868490,123.525391,67.714844 C123.639975,67.561197,123.751953,67.348960,123.861328,67.078125 C124.418623,65.687493,125.033200,64.125009,125.705078,62.390625 C126.376956,60.656241,126.975909,59.111986,127.501953,57.757812 L128.126953,57.757812 L131.822266,67.320312 C131.900391,67.523439,131.988932,67.687499,132.087891,67.812500 C132.186849,67.937501,132.324869,68.059895,132.501953,68.179688 C132.621745,68.252605,132.777994,68.313802,132.970703,68.363281 C133.163412,68.412761,133.324869,68.440104,133.455078,68.445312 ZM128.986328,64.468750 L127.306641,60.171875 L125.658203,64.468750 ZM145.228516,58.468750 C145.082682,58.473958,144.858725,58.515625,144.556641,58.593750 C144.254556,58.671875,144.038412,58.752604,143.908203,58.835938 C143.720702,58.966146,143.594401,59.216144,143.529297,59.585938 C143.464192,59.955731,143.431641,60.424476,143.431641,60.992188 L143.431641,69.109375 L142.751953,69.109375 L136.033203,60.039062 L136.033203,65.757812 C136.033203,66.398441,136.073567,66.890623,136.154297,67.234375 C136.235026,67.578127,136.358723,67.822916,136.525391,67.968750 C136.645183,68.083334,136.892576,68.190104,137.267578,68.289062 C137.642580,68.388021,137.889973,68.440104,138.009766,68.445312 L138.009766,69.000000 L133.462891,69.000000 L133.462891,68.445312 C133.603516,68.434896,133.840493,68.384115,134.173828,68.292969 C134.507163,68.201822,134.715494,68.119792,134.798828,68.046875 C134.981121,67.901041,135.106119,67.678387,135.173828,67.378906 C135.241537,67.079426,135.275391,66.567712,135.275391,65.843750 L135.275391,60.382812 C135.275391,60.143228,135.233724,59.903647,135.150391,59.664062 C135.067057,59.424478,134.955079,59.239584,134.814453,59.109375 C134.626952,58.937499,134.373048,58.790365,134.052734,58.667969 C133.732420,58.545572,133.473308,58.479167,133.275391,58.468750 L133.275391,57.914062 L136.439453,57.914062 L142.673828,66.367188 L142.673828,61.093750 C142.673828,60.447913,142.632162,59.951825,142.548828,59.605469 C142.465494,59.259113,142.345704,59.028646,142.189453,58.914062 C142.043619,58.815104,141.805340,58.718750,141.474609,58.625000 C141.143879,58.531250,140.892579,58.479167,140.720703,58.468750 L140.720703,57.914062 L145.228516,57.914062 ZM156.744141,63.523438 C156.744141,64.466151,156.567059,65.283851,156.212891,65.976562 C155.858722,66.669274,155.397789,67.236977,154.830078,67.679688 C154.257159,68.122398,153.613936,68.453124,152.900391,68.671875 C152.186845,68.890626,151.449874,69.000000,150.689453,69.000000 L146.095703,69.000000 L146.095703,68.445312 C146.246746,68.445312,146.443358,68.430990,146.685547,68.402344 C146.927736,68.373698,147.087890,68.341146,147.166016,68.304688 C147.322266,68.236979,147.435547,68.136719,147.505859,68.003906 C147.576172,67.871093,147.611328,67.710938,147.611328,67.523438 L147.611328,59.523438 C147.611328,59.346353,147.581381,59.187501,147.521484,59.046875 C147.461588,58.906249,147.343100,58.794271,147.166016,58.710938 C147.004556,58.632812,146.830079,58.575521,146.642578,58.539062 C146.455077,58.502604,146.293620,58.479167,146.158203,58.468750 L146.158203,57.914062 L151.001953,57.914062 C151.668623,57.914062,152.324867,58.016926,152.970703,58.222656 C153.616540,58.428386,154.179034,58.705727,154.658203,59.054688 C155.309248,59.518231,155.819660,60.124996,156.189453,60.875000 C156.559247,61.625004,156.744141,62.507807,156.744141,63.523438 ZM154.830078,63.515625 C154.830078,62.770830,154.731121,62.097659,154.533203,61.496094 C154.335285,60.894528,154.046226,60.369794,153.666016,59.921875 C153.306639,59.494790,152.865237,59.158855,152.341797,58.914062 C151.818357,58.669270,151.236331,58.546875,150.595703,58.546875 C150.382160,58.546875,150.141277,58.550781,149.873047,58.558594 C149.604816,58.566406,149.405600,58.572917,149.275391,58.578125 L149.275391,67.101562 C149.275391,67.575523,149.413410,67.903645,149.689453,68.085938 C149.965496,68.268230,150.389971,68.359375,150.962891,68.359375 C151.624352,68.359375,152.202471,68.242189,152.697266,68.007812 C153.192060,67.773436,153.593097,67.447919,153.900391,67.031250 C154.223309,66.593748,154.458984,66.087242,154.607422,65.511719 C154.755860,64.936195,154.830078,64.270837,154.830078,63.515625 ZM181.974609,55.835938 C181.811848,55.842448,181.623048,55.879882,181.408203,55.948242 C181.193358,56.016602,180.994793,56.106119,180.812500,56.216797 C180.584634,56.360027,180.400717,56.524413,180.260742,56.709961 C180.120768,56.895509,179.998698,57.154295,179.894531,57.486328 C179.432289,58.990242,178.895185,60.746409,178.283203,62.754883 C177.671221,64.763356,177.010420,66.903634,176.300781,69.175781 L175.402344,69.175781 L171.906250,58.511719 L168.263672,69.175781 L167.404297,69.175781 C166.759762,66.897124,166.092451,64.532239,165.402344,62.081055 C164.712236,59.629871,164.250001,57.987634,164.015625,57.154297 C163.957031,56.952473,163.870769,56.773438,163.756836,56.617188 C163.642903,56.460937,163.488282,56.317709,163.292969,56.187500 C163.130208,56.076822,162.939780,55.993815,162.721680,55.938477 C162.503580,55.883138,162.306642,55.848958,162.130859,55.835938 L162.130859,55.142578 L167.785156,55.142578 L167.785156,55.835938 C167.290362,55.861979,166.868817,55.910807,166.520508,55.982422 C166.172199,56.054037,165.998047,56.174478,165.998047,56.343750 C165.998047,56.408854,166.007812,56.495117,166.027344,56.602539 C166.046875,56.709961,166.063151,56.796224,166.076172,56.861328 C166.225912,57.434248,166.491209,58.379876,166.872070,59.698242 C167.252932,61.016608,167.817705,62.990872,168.566406,65.621094 L172.023438,55.337891 L172.980469,55.337891 L176.466797,65.845703 C176.935549,64.231112,177.339191,62.819993,177.677734,61.612305 C178.016278,60.404616,178.296223,59.371098,178.517578,58.511719 C178.673829,57.906247,178.771484,57.491212,178.810547,57.266602 C178.849610,57.041991,178.869141,56.851563,178.869141,56.695312 C178.869141,56.473957,178.717775,56.288412,178.415039,56.138672 C178.112303,55.988932,177.622399,55.888021,176.945312,55.835938 L176.945312,55.142578 L181.974609,55.142578 ZM194.289062,64.917969 L194.025391,69.000000 L182.521484,69.000000 L182.521484,68.306641 C182.716798,68.293620,182.977212,68.265951,183.302734,68.223633 C183.628257,68.181315,183.839843,68.137370,183.937500,68.091797 C184.145834,67.994140,184.290690,67.867188,184.372070,67.710938 C184.453451,67.554687,184.494141,67.356121,184.494141,67.115234 L184.494141,57.154297 C184.494141,56.939452,184.458334,56.749024,184.386719,56.583008 C184.315104,56.416991,184.165366,56.281902,183.937500,56.177734 C183.761718,56.093099,183.525718,56.018229,183.229492,55.953125 C182.933267,55.888021,182.697267,55.848958,182.521484,55.835938 L182.521484,55.142578 L193.244141,55.142578 L193.244141,58.482422 L192.511719,58.482422 C192.381510,57.987628,192.099937,57.461917,191.666992,56.905273 C191.234047,56.348630,190.822268,56.044271,190.431641,55.992188 C190.229817,55.966146,189.988934,55.946615,189.708984,55.933594 C189.429035,55.920573,189.110028,55.914062,188.751953,55.914062 L186.574219,55.914062 L186.574219,61.421875 L188.136719,61.421875 C188.638023,61.421875,189.004231,61.374675,189.235352,61.280273 C189.466473,61.185872,189.669921,61.027996,189.845703,60.806641 C189.988933,60.617838,190.111002,60.365561,190.211914,60.049805 C190.312826,59.734048,190.379557,59.436199,190.412109,59.156250 L191.144531,59.156250 L191.144531,64.576172 L190.412109,64.576172 C190.386068,64.263670,190.316081,63.933270,190.202148,63.584961 C190.088216,63.236652,189.969402,62.984376,189.845703,62.828125 C189.643879,62.574217,189.414389,62.408204,189.157227,62.330078 C188.900064,62.251953,188.559898,62.212891,188.136719,62.212891 L186.574219,62.212891 L186.574219,66.373047 C186.574219,66.789716,186.603515,67.118488,186.662109,67.359375 C186.720703,67.600262,186.834635,67.782551,187.003906,67.906250 C187.173178,68.029949,187.404295,68.109700,187.697266,68.145508 C187.990236,68.181315,188.406898,68.199219,188.947266,68.199219 C189.162110,68.199219,189.445311,68.199219,189.796875,68.199219 C190.148439,68.199219,190.444660,68.186198,190.685547,68.160156 C190.932944,68.134114,191.188475,68.086914,191.452148,68.018555 C191.715822,67.950195,191.902994,67.857422,192.013672,67.740234 C192.313153,67.427733,192.627277,66.954105,192.956055,66.319336 C193.284832,65.684567,193.494791,65.217449,193.585938,64.917969 ZM206.828125,64.878906 L206.535156,69.000000 L195.705078,69.000000 L195.705078,68.306641 C195.861329,68.293620,196.087564,68.270833,196.383789,68.238281 C196.680015,68.205729,196.886718,68.163412,197.003906,68.111328 C197.199220,68.026692,197.340820,67.902996,197.428711,67.740234 C197.516602,67.577473,197.560547,67.369142,197.560547,67.115234 L197.560547,57.193359 C197.560547,56.972004,197.523112,56.776694,197.448242,56.607422 C197.373372,56.438150,197.225262,56.301433,197.003906,56.197266 C196.854166,56.119140,196.644207,56.042644,196.374023,55.967773 C196.103840,55.892903,195.880860,55.848958,195.705078,55.835938 L195.705078,55.142578 L201.554688,55.142578 L201.554688,55.835938 C201.372395,55.842448,201.136395,55.875000,200.846680,55.933594 C200.556965,55.992188,200.347006,56.044271,200.216797,56.089844 C199.995442,56.167969,199.844076,56.301431,199.762695,56.490234 C199.681315,56.679037,199.640625,56.880858,199.640625,57.095703 L199.640625,66.402344 C199.640625,66.832033,199.661784,67.165689,199.704102,67.403320 C199.746419,67.640952,199.845702,67.824869,200.001953,67.955078 C200.151693,68.072266,200.374673,68.148763,200.670898,68.184570 C200.967124,68.220378,201.382159,68.238281,201.916016,68.238281 C202.156902,68.238281,202.407551,68.231771,202.667969,68.218750 C202.928387,68.205729,203.175780,68.179688,203.410156,68.140625 C203.638022,68.101562,203.847981,68.047852,204.040039,67.979492 C204.232097,67.911132,204.373697,67.824870,204.464844,67.720703 C204.731772,67.421222,205.042641,66.967125,205.397461,66.358398 C205.752280,65.749671,205.998046,65.256512,206.134766,64.878906 ZM218.898438,64.878906 L218.605469,69.000000 L207.775391,69.000000 L207.775391,68.306641 C207.931641,68.293620,208.157876,68.270833,208.454102,68.238281 C208.750327,68.205729,208.957031,68.163412,209.074219,68.111328 C209.269532,68.026692,209.411132,67.902996,209.499023,67.740234 C209.586915,67.577473,209.630859,67.369142,209.630859,67.115234 L209.630859,57.193359 C209.630859,56.972004,209.593425,56.776694,209.518555,56.607422 C209.443685,56.438150,209.295574,56.301433,209.074219,56.197266 C208.924478,56.119140,208.714520,56.042644,208.444336,55.967773 C208.174152,55.892903,207.951173,55.848958,207.775391,55.835938 L207.775391,55.142578 L213.625000,55.142578 L213.625000,55.835938 C213.442707,55.842448,213.206707,55.875000,212.916992,55.933594 C212.627277,55.992188,212.417318,56.044271,212.287109,56.089844 C212.065754,56.167969,211.914388,56.301431,211.833008,56.490234 C211.751627,56.679037,211.710938,56.880858,211.710938,57.095703 L211.710938,66.402344 C211.710938,66.832033,211.732096,67.165689,211.774414,67.403320 C211.816732,67.640952,211.916015,67.824869,212.072266,67.955078 C212.222006,68.072266,212.444985,68.148763,212.741211,68.184570 C213.037436,68.220378,213.452471,68.238281,213.986328,68.238281 C214.227215,68.238281,214.477863,68.231771,214.738281,68.218750 C214.998699,68.205729,215.246093,68.179688,215.480469,68.140625 C215.708334,68.101562,215.918293,68.047852,216.110352,67.979492 C216.302410,67.911132,216.444010,67.824870,216.535156,67.720703 C216.802085,67.421222,217.112954,66.967125,217.467773,66.358398 C217.822593,65.749671,218.068359,65.256512,218.205078,64.878906 ZM229.669922,62.544922 C230.073570,62.818361,230.408853,63.176430,230.675781,63.619141 C230.942710,64.061851,231.076172,64.598955,231.076172,65.230469 C231.076172,65.875003,230.936199,66.434893,230.656250,66.910156 C230.376301,67.385419,230.011721,67.776040,229.562500,68.082031 C229.126300,68.381512,228.633141,68.609374,228.083008,68.765625 C227.532875,68.921876,226.964847,69.000000,226.378906,69.000000 L219.816406,69.000000 L219.816406,68.306641 C219.972657,68.293620,220.200519,68.265951,220.500000,68.223633 C220.799481,68.181315,221.014322,68.130860,221.144531,68.072266 C221.346355,67.981119,221.489583,67.859050,221.574219,67.706055 C221.658855,67.553059,221.701172,67.356121,221.701172,67.115234 L221.701172,57.154297 C221.701172,56.932942,221.663737,56.737631,221.588867,56.568359 C221.513997,56.399088,221.365887,56.262370,221.144531,56.158203 C220.949218,56.060546,220.731121,55.985677,220.490234,55.933594 C220.249348,55.881510,220.047527,55.848958,219.884766,55.835938 L219.884766,55.142578 L226.281250,55.142578 C226.776044,55.142578,227.249672,55.191406,227.702148,55.289062 C228.154625,55.386719,228.585935,55.559244,228.996094,55.806641 C229.380210,56.034506,229.695962,56.343748,229.943359,56.734375 C230.190756,57.125002,230.314453,57.600258,230.314453,58.160156 C230.314453,58.648440,230.226563,59.083006,230.050781,59.463867 C229.874999,59.844728,229.627606,60.171874,229.308594,60.445312 C229.009113,60.705730,228.665692,60.925455,228.278320,61.104492 C227.890949,61.283530,227.472658,61.421875,227.023438,61.519531 L227.023438,61.607422 C227.420575,61.652995,227.864906,61.752278,228.356445,61.905273 C228.847984,62.058269,229.285805,62.271483,229.669922,62.544922 ZM227.316406,60.455078 C227.557293,60.175129,227.724934,59.869142,227.819336,59.537109 C227.913737,59.205076,227.960938,58.811200,227.960938,58.355469 C227.960938,57.593746,227.752606,56.996421,227.335938,56.563477 C226.919269,56.130532,226.261723,55.914062,225.363281,55.914062 C225.154947,55.914062,224.892905,55.918945,224.577148,55.928711 C224.261392,55.938477,223.996095,55.946615,223.781250,55.953125 L223.781250,61.275391 L225.021484,61.275391 C225.555341,61.275391,226.012693,61.207032,226.393555,61.070312 C226.774416,60.933593,227.082030,60.728517,227.316406,60.455078 ZM228.664062,64.878906 C228.664062,64.058590,228.389000,63.384768,227.838867,62.857422 C227.288734,62.330075,226.502609,62.066406,225.480469,62.066406 C225.063800,62.066406,224.712241,62.071289,224.425781,62.081055 C224.139321,62.090820,223.924480,62.098958,223.781250,62.105469 L223.781250,66.988281 C223.781250,67.398440,223.947264,67.707681,224.279297,67.916016 C224.611330,68.124350,225.073565,68.228516,225.666016,68.228516 C226.636073,68.228516,227.378253,67.945315,227.892578,67.378906 C228.406904,66.812497,228.664062,65.979172,228.664062,64.878906 ZM244.572266,64.917969 L244.308594,69.000000 L232.804688,69.000000 L232.804688,68.306641 C233.000001,68.293620,233.260415,68.265951,233.585938,68.223633 C233.911460,68.181315,234.123046,68.137370,234.220703,68.091797 C234.429037,67.994140,234.573893,67.867188,234.655273,67.710938 C234.736654,67.554687,234.777344,67.356121,234.777344,67.115234 L234.777344,57.154297 C234.777344,56.939452,234.741537,56.749024,234.669922,56.583008 C234.598307,56.416991,234.448569,56.281902,234.220703,56.177734 C234.044921,56.093099,233.808921,56.018229,233.512695,55.953125 C233.216470,55.888021,232.980470,55.848958,232.804688,55.835938 L232.804688,55.142578 L243.527344,55.142578 L243.527344,58.482422 L242.794922,58.482422 C242.664713,57.987628,242.383140,57.461917,241.950195,56.905273 C241.517250,56.348630,241.105471,56.044271,240.714844,55.992188 C240.513020,55.966146,240.272137,55.946615,239.992188,55.933594 C239.712238,55.920573,239.393231,55.914062,239.035156,55.914062 L236.857422,55.914062 L236.857422,61.421875 L238.419922,61.421875 C238.921226,61.421875,239.287434,61.374675,239.518555,61.280273 C239.749676,61.185872,239.953124,61.027996,240.128906,60.806641 C240.272136,60.617838,240.394205,60.365561,240.495117,60.049805 C240.596029,59.734048,240.662760,59.436199,240.695312,59.156250 L241.427734,59.156250 L241.427734,64.576172 L240.695312,64.576172 C240.669271,64.263670,240.599284,63.933270,240.485352,63.584961 C240.371419,63.236652,240.252605,62.984376,240.128906,62.828125 C239.927082,62.574217,239.697592,62.408204,239.440430,62.330078 C239.183267,62.251953,238.843101,62.212891,238.419922,62.212891 L236.857422,62.212891 L236.857422,66.373047 C236.857422,66.789716,236.886718,67.118488,236.945312,67.359375 C237.003907,67.600262,237.117838,67.782551,237.287109,67.906250 C237.456381,68.029949,237.687499,68.109700,237.980469,68.145508 C238.273439,68.181315,238.690101,68.199219,239.230469,68.199219 C239.445314,68.199219,239.728514,68.199219,240.080078,68.199219 C240.431642,68.199219,240.727863,68.186198,240.968750,68.160156 C241.216147,68.134114,241.471678,68.086914,241.735352,68.018555 C241.999025,67.950195,242.186197,67.857422,242.296875,67.740234 C242.596356,67.427733,242.910480,66.954105,243.239258,66.319336 C243.568035,65.684567,243.777994,65.217449,243.869141,64.917969 ZM252.042969,69.000000 L245.802734,69.000000 L245.802734,68.306641 C245.978517,68.293620,246.232420,68.274089,246.564453,68.248047 C246.896486,68.222005,247.130859,68.182943,247.267578,68.130859 C247.482423,68.046224,247.638671,67.930665,247.736328,67.784180 C247.833985,67.637695,247.882812,67.434246,247.882812,67.173828 L247.882812,57.134766 C247.882812,56.906900,247.847006,56.716472,247.775391,56.563477 C247.703776,56.410481,247.534507,56.281902,247.267578,56.177734 C247.072265,56.099609,246.826499,56.026368,246.530273,55.958008 C246.234048,55.889648,245.991537,55.848958,245.802734,55.835938 L245.802734,55.142578 L252.042969,55.142578 L252.042969,55.835938 C251.841145,55.842448,251.600262,55.866862,251.320312,55.909180 C251.040363,55.951498,250.796225,56.005208,250.587891,56.070312 C250.340494,56.148438,250.174480,56.275390,250.089844,56.451172 C250.005208,56.626954,249.962891,56.822265,249.962891,57.037109 L249.962891,67.066406 C249.962891,67.281251,250.010091,67.471679,250.104492,67.637695 C250.198894,67.803712,250.360025,67.935546,250.587891,68.033203 C250.724610,68.085287,250.947590,68.142252,251.256836,68.204102 C251.566082,68.265951,251.828124,68.300130,252.042969,68.306641 ZM268.000000,55.835938 C267.817707,55.842448,267.537762,55.894531,267.160156,55.992188 C266.782550,56.089844,266.512371,56.190755,266.349609,56.294922 C266.115233,56.457683,265.957357,56.770180,265.875977,57.232422 C265.794596,57.694664,265.753906,58.280595,265.753906,58.990234 L265.753906,69.136719 L264.904297,69.136719 L256.505859,57.798828 L256.505859,64.947266 C256.505859,65.748051,256.556315,66.363279,256.657227,66.792969 C256.758139,67.222658,256.912759,67.528645,257.121094,67.710938 C257.270834,67.854167,257.580076,67.987630,258.048828,68.111328 C258.517580,68.235027,258.826822,68.300130,258.976562,68.306641 L258.976562,69.000000 L253.292969,69.000000 L253.292969,68.306641 C253.468751,68.293620,253.764972,68.230144,254.181641,68.116211 C254.598309,68.002278,254.858723,67.899740,254.962891,67.808594 C255.190756,67.626301,255.347005,67.347984,255.431641,66.973633 C255.516276,66.599282,255.558594,65.959640,255.558594,65.054688 L255.558594,58.228516 C255.558594,57.929035,255.506511,57.629559,255.402344,57.330078 C255.298177,57.030597,255.158204,56.799480,254.982422,56.636719 C254.748046,56.421874,254.430666,56.237956,254.030273,56.084961 C253.629881,55.931965,253.305991,55.848958,253.058594,55.835938 L253.058594,55.142578 L257.013672,55.142578 L264.806641,65.708984 L264.806641,59.117188 C264.806641,58.309892,264.754558,57.689781,264.650391,57.256836 C264.546223,56.823891,264.396485,56.535808,264.201172,56.392578 C264.018879,56.268880,263.721031,56.148438,263.307617,56.031250 C262.894204,55.914062,262.580079,55.848958,262.365234,55.835938 L262.365234,55.142578 L268.000000,55.142578 ZM282.531250,63.462891 C282.374999,63.482422,282.165040,63.513346,281.901367,63.555664 C281.637694,63.597982,281.424480,63.658203,281.261719,63.736328 C281.066405,63.833985,280.928060,63.972330,280.846680,64.151367 C280.765299,64.330405,280.724609,64.540363,280.724609,64.781250 L280.724609,65.855469 C280.724609,66.636723,280.729492,67.164061,280.739258,67.437500 C280.749023,67.710939,280.760417,67.935546,280.773438,68.111328 C279.907548,68.501955,279.044926,68.801431,278.185547,69.009766 C277.326168,69.218100,276.483077,69.322266,275.656250,69.322266 C274.770829,69.322266,273.917973,69.156252,273.097656,68.824219 C272.277340,68.492186,271.561201,68.020185,270.949219,67.408203 C270.330726,66.789710,269.839195,66.037765,269.474609,65.152344 C269.110024,64.266923,268.927734,63.277349,268.927734,62.183594 C268.927734,61.128901,269.101886,60.150721,269.450195,59.249023 C269.798504,58.347326,270.291663,57.564456,270.929688,56.900391 C271.548180,56.249346,272.285477,55.743166,273.141602,55.381836 C273.997726,55.020506,274.914058,54.839844,275.890625,54.839844 C276.671879,54.839844,277.352211,54.934244,277.931641,55.123047 C278.511071,55.311850,279.022133,55.539712,279.464844,55.806641 L279.865234,55.142578 L280.646484,55.142578 L280.734375,59.986328 L279.933594,59.986328 C279.796874,59.452471,279.627605,58.926760,279.425781,58.409180 C279.223957,57.891599,278.963543,57.427736,278.644531,57.017578 C278.325519,56.607420,277.936526,56.280275,277.477539,56.036133 C277.018552,55.791991,276.470055,55.669922,275.832031,55.669922 C275.135413,55.669922,274.513675,55.811522,273.966797,56.094727 C273.419919,56.377931,272.944663,56.799476,272.541016,57.359375 C272.143878,57.899742,271.837892,58.573564,271.623047,59.380859 C271.408202,60.188155,271.300781,61.089839,271.300781,62.085938 C271.300781,62.964848,271.406574,63.793290,271.618164,64.571289 C271.829754,65.349288,272.137368,66.021482,272.541016,66.587891 C272.944663,67.167321,273.449216,67.623045,274.054688,67.955078 C274.660159,68.287111,275.347001,68.453125,276.115234,68.453125 C276.688154,68.453125,277.210610,68.365235,277.682617,68.189453 C278.154625,68.013671,278.488280,67.828126,278.683594,67.632812 C278.735677,67.294269,278.763346,66.952476,278.766602,66.607422 C278.769857,66.262368,278.771484,65.969402,278.771484,65.728516 L278.771484,64.966797 C278.771484,64.693358,278.734050,64.450847,278.659180,64.239258 C278.584310,64.027668,278.429689,63.873047,278.195312,63.775391 C277.980468,63.677734,277.689129,63.604492,277.321289,63.555664 C276.953449,63.506836,276.665366,63.475912,276.457031,63.462891 L276.457031,62.750000 L282.531250,62.750000 Z" style="fill: rgba(181, 78, 15, 1.000000); stroke-width: 0.000000px; stroke: rgba(255, 244, 224, 1.000000); "/>
</g></svg>