<svg xmlns="http://www.w3.org/2000/svg" xmlns:xlink="http://www.w3.org/1999/xlink" viewBox="0 0 540 120">
  <defs>
    <style>
      .cls-1 {
        clip-path: url(#clip-logo);
      }

      .cls-2 {
        fill-rule: evenodd;
      }
    </style>
    <clipPath id="clip-logo">
      <rect width="540" height="120"/>
    </clipPath>
  </defs>
  <g id="logo" class="cls-1">
    <path id="_2017-06-24_Logo_text" data-name="2017-06-24 Logo text" class="cls-2" d="M303.367,24.28v-8.8c0-1.293.349-1.817,1.468-1.817h.909c2.2,0,2.656.7,3.354,3.215a1.263,1.263,0,0,0,.943-.1c-.175-1.695-.227-2.988-.28-4.647a53.819,53.819,0,0,1-6.395.349h-2.76a41.913,41.913,0,0,1-6.394-.349,41.413,41.413,0,0,1-.245,4.647,2.136,2.136,0,0,0,.943.1c.7-2.516,1.083-3.215,3.355-3.215h.839c1.082,0,1.5.419,1.5,1.782v8.84c0,2.9-.384,3.005-2.515,3.18a1.136,1.136,0,0,0,0,1.153c1.292-.035,2.708-.07,3.913-.07s2.586.035,3.879.07a1.136,1.136,0,0,0,0-1.153C303.752,27.32,303.367,27.181,303.367,24.28ZM328.7,16.733c0-2.9.384-3.005,2.516-3.18a1.136,1.136,0,0,0,0-1.153c-1.223.07-2.761.07-3.914.07-.978,0-2.516-.035-3.879-.07a1.136,1.136,0,0,0,0,1.153c2.132.14,2.516.28,2.516,3.18v3.005h-8.072V16.733c0-2.9.384-3.005,2.516-3.18a1.136,1.136,0,0,0,0-1.153c-1.328.035-2.8.07-3.914.07-1.034,0-2.481-.035-3.879-.07a1.136,1.136,0,0,0,0,1.153c2.132.14,2.516.28,2.516,3.18V24.28c0,2.9-.384,3.005-2.516,3.18a1.136,1.136,0,0,0,0,1.153c1.4-.035,2.8-.07,3.914-.07s2.516.035,3.879.07a1.136,1.136,0,0,0,0-1.153c-2.132-.14-2.516-.28-2.516-3.18V20.891h8.072V24.28c0,2.9-.384,3.005-2.516,3.18a1.136,1.136,0,0,0,0,1.153c1.293-.035,2.7-.07,3.914-.07,1.059,0,2.516.035,3.879.07a1.136,1.136,0,0,0,0-1.153c-2.132-.14-2.516-.28-2.516-3.18V16.733Zm12.544,3.949c2.3,0,2.341.664,2.411,1.957a.978.978,0,0,0,.978,0c-.035-.8-.07-2-.07-2.551,0-.472.035-1.607.07-2.481a.978.978,0,0,0-.978,0c-.07,1.572-.147,1.957-2.411,1.957h-1.992V14.6a1,1,0,0,1,1.118-.978h1.992c2.865,0,3.32,1.153,3.949,3.145a1.692,1.692,0,0,0,.943-.175c-.14-1.188-.558-3.914-.628-4.158a.093.093,0,0,0-.1-.1,6.039,6.039,0,0,1-1.433.14h-7.233c-1.006,0-2.621-.035-3.879-.07a1.136,1.136,0,0,0,0,1.153c2.131.14,2.516.28,2.516,3.18V24.28c0,2.9-.384,3.005-2.516,3.18a1.136,1.136,0,0,0,0,1.153c1.258-.035,2.8-.07,3.914-.07h5.381c1.4,0,3.7.07,3.7.07a45.8,45.8,0,0,0,1.048-4.822,1.19,1.19,0,0,0-.978-.14c-.558,2.062-1.572,3.809-4.472,3.809h-1.5c-1.475,0-1.817-.377-1.817-1.537V20.681h1.992ZM82,38.206c-4.8-.664-4.613-2.241-12.713-2.241-8.414,0-15.8,5.559-15.8,14.356,0,8.746,7.178,12.738,14.48,15.517,5.046,1.917,11.161,4.249,11.161,12.365,0,6.721-3.751,10.207-10.373,10.207-7.75,0-12.738-3.527-14.563-11.784a3.3,3.3,0,0,0-2.7.249,55.352,55.352,0,0,0,1.66,12.614c5.227,0,7.543,1.909,14.9,1.909A19.37,19.37,0,0,0,78.3,88.676a16.134,16.134,0,0,0,7.8-13.377c0-8.829-6.647-12.7-13.484-15.26-4.913-1.842-13.2-4.979-13.2-11.957,0-4.647,4.2-9.294,9.085-9.294,8.058,0,10.63,5.144,12.289,10.622a3.524,3.524,0,0,0,2.7-.5A76.333,76.333,0,0,0,82,38.206ZM120.871,83.02a2.015,2.015,0,0,0-1.747-1.162c-2.822,3.652-6.389,5.476-9.959,5.476-6.057,0-11.12-6.14-11.12-15.849,0-9.128,3.983-14.6,9.46-14.6,4.9,0,5.56,2.9,5.892,5.808.249,2.241,1.41,2.988,3.153,2.988s4.066-1.079,4.066-3.652c0-4.564-4.73-7.883-12.7-7.883-8.212,0-17.011,7.385-17.011,19.169,0,10.7,5.974,18.09,16.43,18.09,4.982,0,9.38-1.581,13.529-8.385Zm9.875,1.24c0,2.407-.813,3.336-3.569,3.569l-1.992.166a.566.566,0,0,0-.581.664v1.909l.083.166c4.149-.083,5.809-.166,9.045-.166,3.407,0,5.067.083,9.211.166l.166-.166V88.658a.671.671,0,0,0-.664-.664l-1.991-.166c-2.764-.232-3.486-1.162-3.486-3.569V62.934c4.315-4.481,7.053-5.393,9.211-5.393,3.735,0,8.381,4.315,8.381,15.351,0,20.746-4.642,30.293-13.355,36.433a2.434,2.434,0,0,0,.913,1.992c10.041-4.4,18.917-16.02,18.917-38.674,0-14.6-6.639-18.754-13.028-18.754-3.817,0-6.8,1.572-11.037,5.393V42.188c0-5.393.249-8.713.249-8.713,0-.581-.332-.83-1.079-.83a53.261,53.261,0,0,1-11.2,2.158l.166,1.992a.466.466,0,0,0,.5.415l2.656.166c1.66,0,2.49,1.079,2.49,6.472V84.26Zm40.083-43.4c0,2.158,1.992,4.315,3.983,4.315a4.543,4.543,0,0,0,4.315-3.983c0-1.992-1.743-4.315-3.983-4.315C173.153,36.878,170.829,38.87,170.829,40.861Zm7.551,39.582V63.905c0-4.124.332-9.435.332-9.435,0-.332-.415-.581-1.079-.581-2.365.913-5.642,1.66-11.369,2.407a5.525,5.525,0,0,0,.166,2.324c4.522.423,5.394.913,5.394,5.642v16.18c0,6.887-.913,7.136-5.975,7.551a2.7,2.7,0,0,0,0,2.739c2.739-.083,5.975-.166,9.294-.166s6.473.083,9.211.166a2.7,2.7,0,0,0,0-2.739C179.293,87.667,178.38,87.33,178.38,80.443Zm21.079-19.584c-.507.581-.971.78-1,0-.083-2.241-.274-5.452-.664-6.306a.912.912,0,0,0-1-.664A36.97,36.97,0,0,1,186.6,56.3a5.525,5.525,0,0,0,.166,2.324c4.481.415,5.393.83,5.393,5.642V80.443c0,6.8-.83,7.136-5.808,7.551a2.7,2.7,0,0,0,0,2.739c2.49-.083,5.808-.166,9.128-.166s5.808.083,8.3.166a2.7,2.7,0,0,0,0-2.739c-4.232-.415-5.061-.747-5.061-7.551V66.835a4.874,4.874,0,0,1,1.41-3.486c3.154-3.071,6.888-4.892,10.124-4.892a5.172,5.172,0,0,1,4.4,2.988,14.792,14.792,0,0,1,1,6.389V80.443c0,6.8-.83,7.136-5.145,7.551a3.168,3.168,0,0,0,0,2.739c2.49-.083,5.145-.166,8.464-.166s6.307.083,8.8.166a3.174,3.174,0,0,0,0-2.739c-4.647-.415-5.56-.747-5.56-7.551V68.078c0-4.564-.332-8.547-2.241-11.12-1.411-1.826-3.983-2.822-6.887-2.822-4.065,0-8.689,1.08-13.609,6.722Zm56.679,19.418a3.381,3.381,0,0,1-1.327,3.232c-3.071,2.656-5.726,3.983-7.8,3.983-4.481,0-9.128-4.892-9.128-15.268,0-5.974,1.162-9.294,2.407-11.037a8.7,8.7,0,0,1,7.717-4.149,8.314,8.314,0,0,1,6.722,2.988c1.161,1.328,1.41,1.909,1.41,4.481V80.277Zm-.913,6.115c.4-.324,1.187-.473,1.245.107a44.554,44.554,0,0,0,.913,4.892,1.893,1.893,0,0,0,1.577,0c1.826-1.494,4.73-2.739,9.792-3.32a1.867,1.867,0,0,0,0-2.241c-5.31-.415-6.057-1.992-6.057-6.057V42.188c0-5.393.332-8.713.332-8.713,0-.581-.332-.83-1.079-.83a57.757,57.757,0,0,1-11.618,2.241,3.271,3.271,0,0,0,.5,2.49c4.315.249,5.31-.166,5.31,6.8V54.8a.612.612,0,0,1-.747.747c-.332,0-3.734-1.411-6.472-1.411a16.734,16.734,0,0,0-12.448,4.979,20,20,0,0,0-5.725,14.6c0,10.207,5.145,17.675,14.107,17.675,3.237,0,6.307-1.66,10.373-5Zm20.5-5.95c0,6.887-.913,7.3-5.974,7.551a2.7,2.7,0,0,0,0,2.739c2.9-.083,5.974-.166,9.294-.166s6.472.083,9.211.166a2.7,2.7,0,0,0,0-2.739c-5.067-.249-5.974-.664-5.974-7.551V42.188c0-5.393.332-8.713.332-8.713,0-.581-.332-.83-1.079-.83a57.757,57.757,0,0,1-11.618,2.241,3.271,3.271,0,0,0,.5,2.49c4.812.332,5.31.581,5.31,6.8V80.443Zm22.655-13.278c1.572-9.377,7.386-10.124,9.377-10.124,3.154,0,6.888,1.743,6.888,8.713a1.048,1.048,0,0,1-1.245,1.162ZM320.122,82.85c-3.071,3.154-5.476,4.481-10.29,4.481-2.988,0-6.472-1.743-9.045-5.974-1.66-2.739-2.656-6.552-2.656-11.369l22.073.166a1.36,1.36,0,0,0,1.572-1.411c0-6.97-2.49-14.438-14.024-14.438-7.219,0-16.6,6.887-16.6,19.5,0,4.647,1.162,9.128,3.9,12.282,2.821,3.32,6.721,5.311,12.7,5.311,6.307,0,10.788-2.9,14.107-7.219A1.722,1.722,0,0,0,320.122,82.85Zm18.01-21.99c-.142-3.32-.274-5.452-.664-6.306a.911.911,0,0,0-1-.664A36.96,36.96,0,0,1,326.265,56.3a5.526,5.526,0,0,0,.166,2.324c4.481.415,5.394.83,5.394,5.642V80.443c0,6.887-1,7.219-6.141,7.551a2.7,2.7,0,0,0,0,2.739c2.9-.083,6.141-.166,9.46-.166s7.137.083,10.041.166a2.7,2.7,0,0,0,0-2.739c-5.808-.415-6.8-.664-6.8-7.551V68.912a10.214,10.214,0,0,1,1.992-5.559c.913-1.328,2.821-4.066,3.817-4.066a2.476,2.476,0,0,1,2.14,1.051,3.944,3.944,0,0,0,3,1.933,4.3,4.3,0,0,0,3.9-4.149c0-1.585-1.494-3.983-4.979-3.983-3.9,0-7.3,3.652-9.211,6.887-.5.914-.895.25-.911-.165Zm56.68-21.577c5.062,0,11.452,1.826,11.452,11.618,0,10.373-6.721,12.7-14.77,12.7H387.51v-19c0-2.407,1.411-5.31,7.3-5.31Zm-7.3,41.161V66.42c6.97,0,9.842,1.153,10.539,3.154l3.444,9.833c6.108,17.45,14.107,20.04,19.294,20.04a23.388,23.388,0,0,0,8.464-1.494,2.256,2.256,0,0,0-.083-1.992c-8.589-.207-14.257-.19-21.285-18.131l-5.02-12.821c3.568-1.162,11.036-5.476,11.036-14.19a13.556,13.556,0,0,0-4.4-10.373c-3.983-3.735-9.543-3.983-14.771-3.983-3.9,0-7.8.581-10.787.581-2.9,0-6.805-.083-10.7-.166a2.7,2.7,0,0,0,0,2.739c5.808.249,7.219.664,7.219,7.551V80.443c0,6.887-1.411,7.3-7.219,7.551a2.7,2.7,0,0,0,0,2.739c3.734-.083,7.592-.166,10.788-.166,3.12,0,7.053.083,10.7.166a2.7,2.7,0,0,0,0-2.739C388.921,87.745,387.51,87.33,387.51,80.443ZM430,67.165c1.577-9.377,7.386-10.124,9.377-10.124,3.154,0,6.888,1.743,6.888,8.713a1.048,1.048,0,0,1-1.245,1.162Zm21.741,15.683c-3.071,3.154-5.476,4.481-10.29,4.481-2.988,0-6.472-1.743-9.045-5.974-1.66-2.739-2.656-6.552-2.656-11.369l22.073.166a1.36,1.36,0,0,0,1.577-1.411c0-6.97-2.49-14.438-14.024-14.438-7.219,0-16.6,6.887-16.6,19.5,0,4.647,1.162,9.128,3.9,12.282,2.821,3.32,6.721,5.311,12.7,5.311,6.307,0,10.788-2.9,14.107-7.219a1.722,1.722,0,0,0-1.741-1.327ZM469.667,63.1c2.158-2.656,5.958-5.145,8.381-5.145,5.311,0,9.871,5.974,9.871,15.351,0,6.8-2.407,15.268-11.7,15.268-1.493,0-4.4-.415-5.891-1.747-1.668-1.494-1.992-1.975-1.992-4.971v-15.1a4.8,4.8,0,0,1,1.331-3.652ZM468.1,60.028a21.056,21.056,0,0,0-.664-5.476.911.911,0,0,0-1-.664,36.953,36.953,0,0,1-10.207,2.407,5.526,5.526,0,0,0,.167,2.324c4.481.415,5.393.83,5.393,5.642V99.693c0,6.887-.913,7.3-5.974,7.551a2.7,2.7,0,0,0,0,2.739c2.9-.083,5.974-.166,9.294-.166s7.3.083,10.04.166a2.7,2.7,0,0,0,0-2.739c-5.891-.332-6.8-.664-6.8-7.551v-8.96c0-1.079.315-.971,1.162-.623a19.774,19.774,0,0,0,7.219,1.287,17.035,17.035,0,0,0,12.2-4.647c3.9-3.818,6.14-8.962,6.14-15.683,0-8.8-6.223-16.928-14.687-16.928-3.859,0-8.091,2.533-11.369,6.223-.466.523-.875.465-.917-.332Zm32.449,13.526c0,8.464,5.642,17.841,17.426,17.841a16.87,16.87,0,0,0,12.19-4.647,19.416,19.416,0,0,0,5.4-13.94c0-8.63-4.73-18.671-17.426-18.671a16.7,16.7,0,0,0-13,5.808,20.834,20.834,0,0,0-4.593,13.611Zm16.347-16.511c7.136,0,11.531,6.472,11.531,18.422,0,10.456-5.394,13.028-9.294,13.028-8.63,0-11.452-10.456-11.452-16.845,0-7.219,1.742-14.606,9.21-14.606Zm35.021,3.818c-.141-3.32-.273-5.452-.664-6.306a.91.91,0,0,0-.995-.664A36.971,36.971,0,0,1,540.047,56.3a5.524,5.524,0,0,0,.166,2.324c4.481.415,5.393.83,5.393,5.642V80.443c0,6.887-1,7.219-6.14,7.551a2.7,2.7,0,0,0,0,2.739c2.9-.083,6.14-.166,9.46-.166s7.136.083,10.041.166a2.7,2.7,0,0,0,0-2.739c-5.809-.415-6.805-.664-6.805-7.551V68.912a10.214,10.214,0,0,1,1.992-5.559c.913-1.328,2.822-4.066,3.818-4.066a2.477,2.477,0,0,1,2.141,1.054,3.94,3.94,0,0,0,3,1.933,4.3,4.3,0,0,0,3.9-4.149c0-1.585-1.494-3.983-4.979-3.983-3.9,0-7.3,3.652-9.211,6.887-.5.911-.9.247-.917-.168Zm18.176-5.891a1.509,1.509,0,0,0-1.494,1.66V57.7c0,.415.087.5.415.5H573.9V83.182c0,5.891,2.572,8.212,6.389,8.212a15.268,15.268,0,0,0,11.2-5.477A1.572,1.572,0,0,0,590,84.505a11.236,11.236,0,0,1-6.8,2.324c-2.241,0-2.739-2.49-2.739-7.634V58.2h8.63c.83,0,1.992-.332,1.992-1.079v-1.66a.538.538,0,0,0-.664-.5h-9.959V51.735c0-5.393.332-8.713.332-8.713a.605.605,0,0,0-.64-.73,5.294,5.294,0,0,0-1.85.747,12.334,12.334,0,0,1-2.822,1.17c-1,.282-1.825.564-1.825,1.136a85.09,85.09,0,0,1,.249,9.618ZM141.532,123.209c0,3.564,2.376,7.513,7.338,7.513A7.1,7.1,0,0,0,154,128.764a8.177,8.177,0,0,0,2.271-5.87c0-3.634-1.992-7.862-7.338-7.862a7.031,7.031,0,0,0-5.476,2.446,8.769,8.769,0,0,0-1.929,5.731Zm6.884-6.953c3.005,0,4.857,2.725,4.857,7.756,0,4.4-2.271,5.486-3.914,5.486-3.634,0-4.822-4.4-4.822-7.093C144.534,119.365,145.271,116.256,148.416,116.256Zm16.074,1.607c-.213.244-.409.328-.419,0a12.25,12.25,0,0,0-.28-2.656.383.383,0,0,0-.419-.28,15.567,15.567,0,0,1-4.3,1.013,2.326,2.326,0,0,0,.07.978c1.887.175,2.271.349,2.271,2.375v6.814c0,2.865-.349,3.005-2.446,3.18a1.136,1.136,0,0,0,0,1.153c1.048-.035,2.446-.07,3.844-.07s2.446.035,3.494.07a1.136,1.136,0,0,0,0-1.153c-1.782-.175-2.132-.314-2.132-3.18v-5.731a2.051,2.051,0,0,1,.594-1.468,6.521,6.521,0,0,1,4.263-2.061,2.178,2.178,0,0,1,1.852,1.257,6.229,6.229,0,0,1,.419,2.691v5.311c0,2.865-.349,3.005-2.166,3.18a1.334,1.334,0,0,0,0,1.153c1.048-.035,2.166-.07,3.564-.07s2.656.035,3.7.07a1.334,1.334,0,0,0,0-1.153c-1.957-.175-2.341-.314-2.341-3.18V120.9c0-1.922-.14-3.6-.943-4.681a3.61,3.61,0,0,0-2.9-1.188,7.118,7.118,0,0,0-5.731,2.829Zm39.415.7c0-2.9.384-3,2.516-3.179a1.136,1.136,0,0,0,0-1.153c-1.223.07-2.76.07-3.914.07-.978,0-2.516-.035-3.878-.07a1.136,1.136,0,0,0,0,1.153c2.131.14,2.515.28,2.515,3.179v3.005h-8.071v-3.006c0-2.9.384-3,2.516-3.179a1.136,1.136,0,0,0,0-1.153c-1.328.035-2.8.07-3.914.07-1.034,0-2.481-.035-3.879-.07a1.136,1.136,0,0,0,0,1.153c2.132.14,2.516.28,2.516,3.179v7.548c0,2.9-.384,3.005-2.516,3.18a1.136,1.136,0,0,0,0,1.153c1.4-.035,2.8-.07,3.914-.07s2.516.035,3.879.07a1.136,1.136,0,0,0,0-1.153c-2.132-.14-2.516-.28-2.516-3.18v-3.389h8.069v3.389c0,2.9-.384,3.005-2.515,3.18a1.136,1.136,0,0,0,0,1.153c1.292-.035,2.7-.07,3.913-.07,1.059,0,2.516.035,3.879.07a1.136,1.136,0,0,0,0-1.153c-2.132-.14-2.516-.28-2.516-3.18v-7.548Zm12.894,3.949c2.3,0,2.341.664,2.411,1.957a.978.978,0,0,0,.978,0c-.035-.8-.07-2-.07-2.551,0-.472.035-1.607.07-2.481a.978.978,0,0,0-.978,0c-.07,1.572-.147,1.957-2.411,1.957h-1.992v-4.961a1,1,0,0,1,1.118-.978h1.99c2.865,0,3.32,1.153,3.949,3.145a1.7,1.7,0,0,0,.943-.175c-.14-1.187-.559-3.913-.629-4.157a.093.093,0,0,0-.1-.1,6.037,6.037,0,0,1-1.433.14h-7.232c-1.006,0-2.621-.035-3.879-.07a1.136,1.136,0,0,0,0,1.153c2.132.14,2.516.28,2.516,3.179v7.548c0,2.9-.384,3.005-2.516,3.18a1.136,1.136,0,0,0,0,1.153c1.258-.035,2.8-.07,3.914-.07h5.38c1.4,0,3.7.07,3.7.07a45.6,45.6,0,0,0,1.048-4.822,1.189,1.189,0,0,0-.978-.14c-.559,2.062-1.572,3.809-4.473,3.809h-1.5c-1.475,0-1.817-.377-1.817-1.537v-5.241H216.8Zm11.671,4.193c-.7,1.537-1.118,2.411-2.97,2.586a1.136,1.136,0,0,0,0,1.153c.629-.035,1.4-.07,2.306-.07.936,0,2.271.035,3.355.07a1.136,1.136,0,0,0,0-1.153c-1.887-.14-2.132-.594-1.328-2.341l.674-1.492c.119-.262.189-.395.758-.395H237.8l.732,1.886c.751,1.89.8,2.166-1.083,2.341a1.136,1.136,0,0,0,0,1.153c1.223-.035,2.568-.07,3.7-.07,1.041,0,2.062.035,3.075.07a1.136,1.136,0,0,0,0-1.153c-1.852-.245-1.971-.524-2.8-2.551l-5.374-13.18a5.743,5.743,0,0,1-1.9.678Zm8.91-2.83H232.1c-.7,0-.646-.472-.349-1.153l2.586-5.9.245-.035Zm20.791,6.5s.8-3.355,1.048-4.822a1.189,1.189,0,0,0-.978-.14c-.559,2.062-1.572,3.774-3.774,3.774h-1.572a1.213,1.213,0,0,1-1.293-1.223v-9.4c0-2.9.384-3,2.516-3.179a1.136,1.136,0,0,0,0-1.153c-1.293.035-2.715.07-3.914.07-1.094,0-2.586-.035-3.879-.07a1.136,1.136,0,0,0,0,1.153c2.132.14,2.516.28,2.516,3.179v7.548c0,2.9-.07,3.075-2.516,3.18a1.136,1.136,0,0,0,0,1.153c1.712-.035,4.018-.07,4.018-.07h7.827Zm11.916-4.263V117.3c0-1.293.349-1.817,1.468-1.817h.909c2.2,0,2.656.7,3.355,3.214a1.263,1.263,0,0,0,.943-.1c-.175-1.694-.227-2.987-.28-4.647a53.817,53.817,0,0,1-6.395.349h-2.761a41.9,41.9,0,0,1-6.394-.349,41.39,41.39,0,0,1-.245,4.647,2.135,2.135,0,0,0,.943.1c.7-2.515,1.082-3.214,3.354-3.214h.839c1.083,0,1.5.419,1.5,1.782v8.84c0,2.9-.384,3.005-2.516,3.18a1.136,1.136,0,0,0,0,1.153c1.293-.035,2.708-.07,3.914-.07s2.586.035,3.879.07a1.136,1.136,0,0,0,0-1.153c-2.132-.14-2.516-.28-2.516-3.18Zm25.683-7.548c0-2.9.384-3,2.516-3.179a1.136,1.136,0,0,0,0-1.153c-1.223.07-2.76.07-3.913.07-.978,0-2.516-.035-3.879-.07a1.136,1.136,0,0,0,0,1.153c2.132.14,2.516.28,2.516,3.179v3.005h-8.072v-3.006c0-2.9.384-3,2.516-3.179a1.136,1.136,0,0,0,0-1.153c-1.328.035-2.8.07-3.914.07-1.034,0-2.481-.035-3.879-.07a1.135,1.135,0,0,0,0,1.153c2.132.14,2.516.28,2.516,3.179v7.548c0,2.9-.384,3.005-2.516,3.18a1.135,1.135,0,0,0,0,1.153c1.4-.035,2.8-.07,3.914-.07s2.516.035,3.879.07a1.136,1.136,0,0,0,0-1.153c-2.132-.14-2.516-.28-2.516-3.18v-3.389h8.072v3.389c0,2.9-.384,3.005-2.516,3.18a1.135,1.135,0,0,0,0,1.153c1.293-.035,2.7-.07,3.914-.07,1.058,0,2.515.035,3.878.07a1.136,1.136,0,0,0,0-1.153c-2.132-.14-2.516-.28-2.516-3.18v-7.548Zm21.7,0c.384.734,3.179,4.787,5.171,7.408-1.712,2.341-2.97,3.6-5.45,3.6-2.2,0-4.088-1.223-4.088-4.647,0-2.482.768-4.369,4.367-6.36Zm5.974,8.526,1.013,1.293c1.642,2.271,2.935,2.341,4.018,2.341,1.223,0,2.8-.978,3.6-3.424a.9.9,0,0,0-.734-.349,2.813,2.813,0,0,1-2.656,1.887c-.559,0-1.607-.7-2.691-2.2l-1.258-1.747a54.957,54.957,0,0,0,3.11-5.067c1.607-2.864,1.845-3.046,3.984-3.179a1.136,1.136,0,0,0,0-1.153c-.7.035-1.747.07-2.935.07s-2.621-.035-3.32-.07a1.136,1.136,0,0,0,0,1.153c1.89.094,2.411.28,1.1,2.725a49.3,49.3,0,0,1-2.708,4.473c-1.607-2.166-3.634-5.067-4.263-6.149l-.14-.28c2.9-1.677,5.207-3.949,5.207-5.87,0-2.2-2.027-3.774-4.473-3.774-3.494,0-5.38,2.481-5.38,4.543,0,1.328.489,2.691,1.782,4.927-4.612,2.585-6.464,4.926-6.464,7.687,0,4.263,2.97,5.8,6.709,5.8,2.972,0,4.894-1.434,6.5-3.636Zm-4.612-11.007a9.478,9.478,0,0,1-1.328-3.844,3.084,3.084,0,0,1,2.621-3.32c1.433,0,2.236,1.048,2.236,2.621,0,1.257-1.295,3.075-3.53,4.543Zm46.037,1.677-3.494,8.543c-.087.269-.175.241-.28,0l-3.426-8.788c-.646-1.653-.577-1.992,1.275-2.132a1.136,1.136,0,0,0,0-1.153c-1.118.035-2.271.07-3.494.07s-2.2-.035-3.075-.07a1.136,1.136,0,0,0,0,1.153c1.642.122,1.887.611,2.921,3.214.1.255.049.674-.437,1.782l-2.673,6.045c-.1.241-.255.248-.342-.087l-3.382-8.613c-.66-1.688-.625-2.236,1.048-2.341a1.136,1.136,0,0,0,0-1.153c-1.083.035-2.236.07-3.494.07-1.328,0-2.3-.035-3.215-.07a1.135,1.135,0,0,0,0,1.153c1.646.168,1.834.524,2.589,2.341l4.749,11.356c.524,1.254.8,1.712,1.118,1.712.384,0,.58-.245,1.223-1.747l3.232-7.548c.234-.545.377-.577.559-.14l3.162,7.687c.409,1.038.765,1.747,1.223,1.747.388,0,.741-.688,1.153-1.747L366.3,117.9c.566-1.408,1.136-2.411,2.914-2.516a1.136,1.136,0,0,0,0-1.153c-.734.035-1.5.07-2.76.07-1.328,0-2.341-.035-3.32-.07a1.135,1.135,0,0,0,0,1.153c2.586.14,2.222,1.17,1.733,2.376Zm13.715,4.751c2.3,0,2.341.664,2.411,1.957a.977.977,0,0,0,.978,0c-.035-.8-.07-2-.07-2.551,0-.472.035-1.607.07-2.481a.977.977,0,0,0-.978,0c-.07,1.572-.147,1.957-2.411,1.957h-1.992v-4.961a1,1,0,0,1,1.118-.978H379.7c2.864,0,3.32,1.153,3.948,3.145a1.7,1.7,0,0,0,.943-.175c-.14-1.187-.559-3.913-.629-4.157a.093.093,0,0,0-.1-.1,6.041,6.041,0,0,1-1.433.14H375.2c-1.006,0-2.621-.035-3.879-.07a1.136,1.136,0,0,0,0,1.153c2.132.14,2.516.28,2.516,3.179v7.548c0,2.9-.384,3.005-2.516,3.18a1.136,1.136,0,0,0,0,1.153c1.258-.035,2.8-.07,3.914-.07h5.381c1.4,0,3.7.07,3.7.07a45.593,45.593,0,0,0,1.048-4.822,1.189,1.189,0,0,0-.978-.14c-.559,2.062-1.572,3.809-4.472,3.809h-1.5c-1.475,0-1.817-.377-1.817-1.537v-5.241h1.992Zm21.244,7.862s.8-3.355,1.048-4.822a1.189,1.189,0,0,0-.978-.14c-.559,2.062-1.572,3.774-3.774,3.774h-1.572a1.212,1.212,0,0,1-1.293-1.223v-9.4c0-2.9.384-3,2.516-3.179a1.136,1.136,0,0,0,0-1.153c-1.293.035-2.715.07-3.914.07-1.094,0-2.585-.035-3.878-.07a1.136,1.136,0,0,0,0,1.153c2.131.14,2.515.28,2.515,3.179v7.548c0,2.9-.07,3.075-2.515,3.18a1.136,1.136,0,0,0,0,1.153c1.712-.035,4.018-.07,4.018-.07h7.827Zm15.06,0s.8-3.355,1.048-4.822a1.189,1.189,0,0,0-.978-.14c-.559,2.062-1.572,3.774-3.774,3.774h-1.572a1.212,1.212,0,0,1-1.293-1.223v-9.4c0-2.9.384-3,2.516-3.179a1.136,1.136,0,0,0,0-1.153c-1.293.035-2.715.07-3.914.07-1.094,0-2.585-.035-3.878-.07a1.136,1.136,0,0,0,0,1.153c2.131.14,2.515.28,2.515,3.179v7.548c0,2.9-.07,3.075-2.515,3.18a1.136,1.136,0,0,0,0,1.153c1.711-.035,4.018-.07,4.018-.07h7.827Zm8.386-13.557c0-1.083.245-1.433,2.656-1.433,1.537,0,3.354.384,3.354,2.725,0,2.1-1.013,3.005-3.285,3.005h-2.726v-4.3Zm0,5.45H426c3.18,0,3.983,1.6,3.983,3.494,0,1.537-.559,3.529-4.123,3.529-2.271,0-2.586-.489-2.586-1.782Zm-1.363,8.107c1.048,0,2.865.07,4.822.07,4.647,0,6.29-1.908,6.29-4.438a4.143,4.143,0,0,0-3.6-4.368,4.342,4.342,0,0,0,2.516-3.564c0-1.956-.909-3.844-5.975-3.844-1.852,0-3.064.07-4.088.07s-2.585-.035-3.878-.07a1.136,1.136,0,0,0,0,1.153c2.131.14,2.515.28,2.515,3.179v7.548c0,2.9-.384,3.005-2.515,3.18a1.135,1.135,0,0,0,0,1.153c1.465-.034,2.943-.069,3.911-.069Zm21.175-7.862c2.3,0,2.341.664,2.411,1.957a.978.978,0,0,0,.978,0c-.035-.8-.07-2-.07-2.551,0-.472.035-1.607.07-2.481a.978.978,0,0,0-.978,0c-.07,1.572-.147,1.957-2.411,1.957H441.1v-4.961a1,1,0,0,1,1.118-.978h1.992c2.865,0,3.32,1.153,3.949,3.145a1.693,1.693,0,0,0,.943-.175c-.14-1.187-.558-3.913-.628-4.157a.093.093,0,0,0-.1-.1,6.04,6.04,0,0,1-1.433.14H439.7c-1.006,0-2.621-.035-3.879-.07a1.136,1.136,0,0,0,0,1.153c2.132.14,2.516.28,2.516,3.179v7.548c0,2.9-.384,3.005-2.516,3.18a1.136,1.136,0,0,0,0,1.153c1.258-.035,2.8-.07,3.914-.07h5.381c1.4,0,3.7.07,3.7.07a45.608,45.608,0,0,0,1.048-4.822,1.189,1.189,0,0,0-.978-.14c-.558,2.062-1.572,3.809-4.472,3.809h-1.5c-1.475,0-1.817-.377-1.817-1.537v-5.241h1.992Zm14.815-3.949c0-2.9.384-3,2.516-3.179a1.136,1.136,0,0,0,0-1.153c-1.328.035-2.841.07-3.913.07s-2.516-.035-3.879-.07a1.136,1.136,0,0,0,0,1.153c2.132.14,2.516.28,2.516,3.179v7.548c0,2.9-.384,3.005-2.516,3.18a1.136,1.136,0,0,0,0,1.153c1.293-.035,2.736-.07,3.914-.07,1.136,0,2.655.035,3.878.07a1.136,1.136,0,0,0,0-1.153c-2.131-.14-2.516-.28-2.516-3.18v-7.548Zm9.47,7.548V119.47c0-1.718.444-1.387,1.258-.384l8.212,10.937a2.173,2.173,0,0,0,1.607.769.776.776,0,0,0,.768-.943V118.561c0-2.9.384-3,2.516-3.179a1.136,1.136,0,0,0,0-1.153c-1.048.035-2.306.07-3.354.07s-2.271-.035-3.32-.07a1.136,1.136,0,0,0,0,1.153c2.132.14,2.516.28,2.516,3.179V125.1c0,.943-.1,1.537-1.188.07l-8-10.866-4.962-.07-.07.1v.839a.306.306,0,0,0,.314.21,2.1,2.1,0,0,1,2.062,1.153v9.573c0,2.9-.384,3.04-2.516,3.18a1.136,1.136,0,0,0,0,1.153c1.048-.035,2.271-.07,3.32-.07s2.306.035,3.355.07a1.136,1.136,0,0,0,0-1.153c-2.133-.175-2.518-.28-2.518-3.18Zm32.112,1.076c0-2.893.21-3,1.293-3.173a1.136,1.136,0,0,0,0-1.153c-.629.035-1.618.07-2.691.07s-2.656-.035-3.669-.07a1.136,1.136,0,0,0,0,1.153c2.132.14,2.306.28,2.306,3.18v1.887a12.79,12.79,0,0,1-3.494.489c-4.368,0-5.8-4.473-5.8-7.338,0-4.228,2.027-7.127,5.38-7.127,3.459,0,4.927,1.747,5.451,3.983a1.17,1.17,0,0,0,1.048-.1,24.664,24.664,0,0,0-.454-4.472c-1.048,0-3.634-.559-5.591-.559-5,0-8.979,3.215-8.979,8.736a7.935,7.935,0,0,0,8.316,8.037,15.125,15.125,0,0,0,7.268-1.607,1.232,1.232,0,0,1-.384-.8v-1.125Z" transform="translate(-51.493 -11.675)"/>
  </g>
</svg>
