<svg width="36px" height="72px" xmlns="http://www.w3.org/2000/svg" xmlns:xlink="http://www.w3.org/1999/xlink">
<g style="">  <path d="M11.825545,24.016930 C13.093270,24.630550,13.522052,24.497601,13.111906,23.618079 C12.440758,23.393085,12.011975,23.526034,11.825545,24.016930 ZM19.096281,58.011305 L19.096281,60.036240 C18.872565,60.629406,18.499711,60.925985,17.977706,60.925985 C17.343844,60.925985,16.989632,60.271467,16.915060,58.962411 L16.915060,57.489730 C13.522033,56.794294,11.844188,55.781837,11.881474,54.452327 C11.993332,52.775099,13.522036,51.680826,16.467630,51.169476 L16.467630,52.611476 C15.274478,53.102372,14.677911,53.572807,14.677911,54.022795 C14.603339,55.004587,16.085436,55.817621,19.124246,56.461922 C22.163055,57.106223,23.663795,58.645363,23.626509,61.079389 L23.235008,61.079389 C22.713004,59.749879,21.333442,58.727194,19.096281,58.011305 ZM16.915060,45.616244 C11.695019,44.859446,9.029109,43.345873,8.917251,41.075479 C8.879965,39.030079,11.396733,37.526733,16.467630,36.565395 L16.467630,38.651692 C13.298319,39.428944,11.713688,40.339134,11.713688,41.382288 C11.713688,42.323171,14.305027,43.248701,19.487782,44.158904 C24.670538,45.069107,27.280520,46.516205,27.317806,48.500243 C27.243234,50.157017,24.651895,51.466053,19.543711,52.427391 L19.487782,50.801306 C22.992667,50.085416,24.689156,49.205908,24.577298,48.162754 C24.540011,47.426410,22.713024,46.710531,19.096281,46.015095 L19.096281,56.201135 L16.915060,55.618199 ZM19.096281,32.024630 L19.096281,43.775393 L16.915060,43.284500 L16.915060,31.840545 C9.569716,31.451919,5.859813,29.846305,5.785241,27.023653 C6.046244,24.078277,8.152872,22.554477,12.105189,22.452207 C13.410199,22.370391,14.584691,23.076044,15.628699,24.569185 L12.496690,25.489611 L15.125341,26.256632 C13.708472,26.624804,12.086555,26.410040,10.259540,25.612334 C9.327390,25.346432,8.768108,25.868001,8.581678,27.177057 C8.507106,28.220211,11.983975,28.982111,19.012388,29.462780 C26.040801,29.943449,29.610883,31.380321,29.722741,33.773438 C29.610883,36.596090,26.180622,38.171024,19.431854,38.498288 L19.431854,36.626757 C24.540037,35.972229,27.075448,35.021132,27.038162,33.773438 C27.261878,33.057549,24.614611,32.474618,19.096281,32.024630 ZM19.096281,29.324716 L16.915060,29.109950 L16.803203,19.875016 C16.393057,19.650023,16.076130,19.302310,15.852414,18.831868 C15.628698,18.361426,15.516842,17.880764,15.516842,17.389868 C15.516842,16.878518,15.628698,16.387630,15.852414,15.917188 C16.076130,15.446746,16.383735,15.088806,16.775239,14.843358 C17.166742,14.597910,17.567560,14.475188,17.977706,14.475188 C18.425139,14.475188,18.844600,14.597910,19.236103,14.843358 C19.627606,15.088806,19.935211,15.446746,20.158927,15.917188 C20.382643,16.387630,20.494500,16.878518,20.494500,17.389868 C20.494500,17.880764,20.382643,18.361426,20.158927,18.831868 C19.935211,19.302310,19.636927,19.650023,19.264067,19.875016 Z" style="fill: rgba(108, 93, 83, 1.000000); stroke-width: 0.000000px; stroke: rgba(187, 179, 173, 1.000000); "/>
</g></svg>